<svg xmlns="http://www.w3.org/2000/svg" viewBox="0 0 500 500"><g id="freepik--Shadow--inject-46"><ellipse cx="233.99" cy="431.45" rx="190.83" ry="20.01" style="fill:#ebebeb"></ellipse></g><g id="freepik--Plant--inject-46"><path d="M439.22,292.7c-3.6-3.53-8.26-7.79-13.76-6.27-5.18,1.43-7.16,7.09-8.09,11.8-1.19,6.06-2.12,12.19-3.09,18.3s-1.88,12.35-2.77,18.54q-.75,5.24-1.49,10.47l-.72,5.24c-.24,1.71-.53,3.42-.62,5.15,0,.55.83.63.95.1.67-2.91.94-5.94,1.37-8.89s.86-5.95,1.3-8.92q1.29-8.85,2.64-17.7t2.75-17.69c.8-5,1.18-11.21,5.61-14.51a8.54,8.54,0,0,1,8.29-.77c2.91,1.11,5.24,3.2,7.52,5.26A.08.08,0,0,0,439.22,292.7Z" style="fill:#263238"></path><path d="M434.29,289.1s-7.36-2.65-11,2.72.71,19,34.22,26.74a94.54,94.54,0,0,0-8.07-30.29C442.27,272.6,429.47,278.53,434.29,289.1Z" style="fill:#E8C066"></path><path d="M455.59,316.32a27.25,27.25,0,0,0-1.68-2.72c-.56-.86-1.13-1.72-1.7-2.58-.43-.64-.87-1.28-1.32-1.91a4,4,0,0,0,.07-.48c0-.29.07-.58.11-.87.08-.63.18-1.26.27-1.88s.19-1.25.31-1.87a10.74,10.74,0,0,1,.44-2c0-.1-.13-.14-.14,0a8.67,8.67,0,0,1-.3,1.11c-.08.28-.16.56-.23.85-.16.63-.32,1.27-.46,1.91s-.24,1.18-.34,1.78c-.05.29-.09.57-.13.86-.6-.85-1.21-1.7-1.84-2.53-1.78-2.34-3.66-4.59-5.61-6.79,0,0,0,0,0-.07.18-3.52.09-7,.87-10.46,0-.1-.12-.15-.14-.06a36.09,36.09,0,0,0-1.25,10c-.7-.78-1.4-1.55-2.12-2.32-1.63-1.76-3.29-3.48-5-5.18-.07-.06-.18,0-.11.11,2.82,3,5.5,6.2,8.12,9.43a56.9,56.9,0,0,0-6.13.22c-2.27.17-4.53.46-6.79.77-.09,0-.06.17,0,.15a64.17,64.17,0,0,1,6.78-.6c2.18-.1,4.36,0,6.54,0q2.12,2.63,4.19,5.29h-.32c-.51,0-1,0-1.54,0-1,0-2,.09-3,.18a46.21,46.21,0,0,0-6.19.92c-.09,0-.06.16,0,.15,2.06-.23,4.13-.42,6.2-.5,1,0,2,0,3,0h1.54a1.83,1.83,0,0,0,.85-.08q1.35,1.75,2.69,3.52c.71.94,1.42,1.88,2.1,2.83s1.35,2,2.13,3C455.53,316.48,455.63,316.4,455.59,316.32Z" style="fill:#263238"></path><path d="M437.5,296.71a21.54,21.54,0,0,0-3.59-.18c-1.19,0-2.39,0-3.59.08a.08.08,0,1,0,0,.15c1.22-.09,2.43-.11,3.64-.09s2.35.13,3.52.1C437.53,296.77,437.53,296.71,437.5,296.71Z" style="fill:#263238"></path><path d="M448,299.41c.14-1.15.28-2.3.53-3.42a.08.08,0,1,0-.15,0c-.17,1.12-.39,2.24-.56,3.37-.08.56-.16,1.13-.23,1.69a7.85,7.85,0,0,0-.13,1.6c0,.1.17.11.19,0a9.56,9.56,0,0,0,.18-1.6C447.89,300.5,448,300,448,299.41Z" style="fill:#263238"></path><path d="M445.81,286.73c-.3,1.11-.59,2.24-.79,3.37-.11.58-.19,1.16-.27,1.74a6.39,6.39,0,0,0-.11,1.69s.07.05.08,0a8.6,8.6,0,0,0,.27-1.61c.07-.56.16-1.11.25-1.67.21-1.16.41-2.32.71-3.47C446,286.69,445.83,286.63,445.81,286.73Z" style="fill:#263238"></path><path d="M402.18,354.69c-.19-2.11-.39-4.22-.62-6.33q-.66-6.25-1.51-12.5c-.55-4.14-1.09-8.3-1.75-12.43a32.09,32.09,0,0,0-1.28-5.65,5.41,5.41,0,0,0-3.13-3.53c-3.94-1.36-6.6,2.73-8.19,5.62-.05.09.07.15.13.08.95-1.37,3.59-5.22,6.58-5,2,.12,3.62,1.55,4.58,6.56,2.41,12.51,4.58,37.88,4.83,39.54.14.88.76.84.77-.1C402.6,358.83,402.36,356.75,402.18,354.69Z" style="fill:#263238"></path><path d="M386.76,318.32s3.44-12.17-4.17-6.09c-12.68,10.13-13.13,32.16-13.13,32.16S392,331.3,394.8,322.66C399,309.8,386.76,318.32,386.76,318.32Z" style="fill:#E8C066"></path><path d="M391,324.29c-1.77.36-3.57.6-5.35.85l-2.54.36c-.57.08-1.15.13-1.72.2,1.67-2.31,3.37-4.62,5-7,.06-.1-.08-.19-.15-.12a53.91,53.91,0,0,0-3.77,4.35l-1-2.82c-.38-1.09-.79-2.18-1.07-3.3,0-.09-.17,0-.15,0,.31,1.12.53,2.26.83,3.38s.61,2.14,1,3.19c-.83,1.07-1.62,2.17-2.39,3.28-.39-1.1-.87-2.16-1.21-3.28,0-.09-.18-.05-.14.05.4,1.23.62,2.52,1,3.76-.52.75-1,1.51-1.53,2.27-.91,1.41-1.77,2.84-2.61,4.28a.34.34,0,0,0-.2.34c-1.42,2.47-2.78,5-4.11,7.49a.07.07,0,1,0,.13.07c1.34-2.49,2.83-4.91,4.37-7.3h0a3.35,3.35,0,0,1,.74-.14l.78-.17,1.74-.42c1.14-.29,2.27-.56,3.43-.76.1,0,.05-.16,0-.14-1.37.26-2.74.41-4.12.57-.65.08-1.3.16-1.94.27h-.1c.81-1.23,1.64-2.46,2.47-3.66s1.66-2.36,2.5-3.53c.79-.11,1.56-.32,2.34-.47l2.61-.51c1.75-.34,3.48-.73,5.24-1C391.16,324.42,391.12,324.27,391,324.29Z" style="fill:#263238"></path><path d="M377.48,325.49c-.11-.32-.2-.64-.31-1a20.27,20.27,0,0,1-.51-2c0-.09-.17-.05-.15,0,.15.68.31,1.37.47,2.05a12.08,12.08,0,0,0,.59,2,.14.14,0,0,0,.26-.08C377.73,326.18,377.59,325.84,377.48,325.49Z" style="fill:#263238"></path><path d="M393.33,321.47c-1,.16-2.06.23-3.1.32s-2.06.24-3.1.39c-.05,0-.05.1,0,.09,1-.07,2.06-.15,3.1-.28s2.06-.29,3.1-.36C393.43,321.62,393.43,321.46,393.33,321.47Z" style="fill:#263238"></path><path d="M418.76,339.28c-.4-8.95-1-17.9-1.87-26.82-.44-4.44-.95-8.89-1.57-13.31a94.39,94.39,0,0,0-2.57-12.88,24.66,24.66,0,0,0-4.29-9.08,9.73,9.73,0,0,0-8.66-3.78c-3.92.49-7.08,3-9.81,5.64-3.06,3-5.86,6.3-8.7,9.52-.72.81-1.43,1.63-2.14,2.46-.06.07.05.18.11.1,2.78-3.18,5.66-6.28,8.67-9.24,2.79-2.74,5.66-5.73,9.52-6.86a9.82,9.82,0,0,1,5.53-.13,8.82,8.82,0,0,1,3.78,2.39,20,20,0,0,1,4.26,8.29c2.41,8.23,3.27,16.87,4.17,25.37s1.52,17.3,2,26,.77,17.45,1.61,26.15c.11,1.07.25,2.14.38,3.21.09.72,1.21.72,1.15,0C419.58,357.28,419.17,348.29,418.76,339.28Z" style="fill:#263238"></path><path d="M389.5,280s5.12-9.47-.93-12.5-26.27,19.54-32.18,52.56c0,0,32.67-14.45,43.77-28.86S398.67,273.64,389.5,280Z" style="fill:#E8C066"></path><path d="M394.31,287.72c-3.68,0-7.34-.28-11-.25.69-.79,1.37-1.58,2.07-2.37a35,35,0,0,0,2.87-3.33c.05-.08-.06-.18-.14-.13a26.06,26.06,0,0,0-2.77,2.79l-2.75,2.94c-1.4,1.52-2.78,3.07-4.15,4.61,0-.15,0-.3,0-.44,0-.64,0-1.29,0-1.93,0-1.25,0-2.49,0-3.74,0-2.52,0-5.06.19-7.58,0-.1-.15-.09-.15,0-.18,2.54-.44,5.06-.56,7.6-.07,1.24-.1,2.49-.11,3.73,0,.65,0,1.29,0,1.93,0,.35,0,.72,0,1.08-.21.25-.43.48-.65.72-2.93,3.35-5.71,6.82-8.43,10.34a5.67,5.67,0,0,0-.05-.58c0-.39-.08-.78-.12-1.17-.1-.84-.21-1.68-.34-2.52s-.24-1.57-.38-2.36-.36-1.77-.43-2.67c0-.11-.17-.08-.15,0a21.93,21.93,0,0,1,.31,2.69c.08.8.15,1.61.23,2.42s.14,1.62.22,2.43l.12,1.16c0,.2.05.39.07.58a1.29,1.29,0,0,0,.16.47c-.47.6-.93,1.21-1.4,1.82-1.85,2.45-3.67,4.93-5.49,7.41-.05.08.05.18.11.1,1.72-2.24,3.5-4.45,5.29-6.64,1.35.06,2.72,0,4.06-.06s2.84,0,4.26,0a.08.08,0,0,0,0-.16c-1.42,0-2.83.05-4.25.06s-2.61-.06-3.9,0q2.37-2.88,4.78-5.73c.58-.7,1.17-1.39,1.75-2.08a8.16,8.16,0,0,0,1.64.05h1.93l3.62-.05c2.5,0,5-.12,7.49-.13.1,0,.09-.15,0-.15-2.49,0-5-.14-7.49-.2-1.21,0-2.41-.07-3.62-.09l-1.93,0c-.37,0-.75,0-1.12,0l4.12-4.88a.22.22,0,0,0,.07-.09c1.34-1.57,2.68-3.15,4-4.72l.56-.64c3.81.12,7.61-.13,11.42-.06C394.41,287.87,394.4,287.72,394.31,287.72Z" style="fill:#263238"></path><path d="M392.43,294.21h-.89a.07.07,0,0,0,0,.14h.89C392.53,294.37,392.52,294.21,392.43,294.21Z" style="fill:#263238"></path><path d="M390.45,294.22c-1.18,0-2.35,0-3.53-.07l-1.76-.06a7,7,0,0,0-1.65,0,.06.06,0,0,0,0,.11,6,6,0,0,0,1.64.12l1.77,0c1.17,0,2.35,0,3.52,0C390.55,294.38,390.55,294.23,390.45,294.22Z" style="fill:#263238"></path><path d="M380.18,305.25a50.07,50.07,0,0,0-7.23-.65,0,0,0,0,0,0,0c2.4.23,4.81.36,7.19.75C380.24,305.41,380.27,305.27,380.18,305.25Z" style="fill:#263238"></path><path d="M370.35,294.74c0-.21,0-.42-.07-.63-.06-.47-.14-.94-.21-1.42-.14-.89-.3-1.79-.47-2.68,0-.08-.16-.06-.15,0,.12.93.22,1.85.3,2.78l.12,1.36a4,4,0,0,0,.18,1.3c.07.14.28.08.32-.05A1.73,1.73,0,0,0,370.35,294.74Z" style="fill:#263238"></path><path d="M418.44,267.86c-1.17-2.17-2.66-5.05-5.58-4.87-2.41.15-3.49,2.61-4,4.64-1.59,6.29-1.7,12.93-2,19.37-.66,13.62-1.25,27.25-1.33,40.89,0,3.78,0,7.56,0,11.34s0,7.73.27,11.58a.29.29,0,0,0,.57,0c0-3.3-.1-6.6-.11-9.9s0-6.43.07-9.65q.15-9.78.52-19.55c.24-6.47.52-12.95.8-19.42.13-3.23.27-6.47.42-9.7s.27-6.27.63-9.39c.2-1.75.46-3.5.82-5.22a7.31,7.31,0,0,1,1.51-3.49,3.3,3.3,0,0,1,4.26-.31,9,9,0,0,1,3,3.77C418.36,268,418.49,268,418.44,267.86Z" style="fill:#263238"></path><path d="M417.65,266.82s-2.4-8.47,2.91-4.24c8.83,7.06,9.14,22.4,9.14,22.4s-15.7-9.12-17.65-15.13C409.14,260.89,417.65,266.82,417.65,266.82Z" style="fill:#E8C066"></path><path d="M426.4,278.69c-.14-.23-.3-.46-.45-.69a4.33,4.33,0,0,0,0-.72c0-.37,0-.73,0-1.1,0-.71,0-1.43.08-2.15,0-.09-.15-.09-.16,0,0,.7-.06,1.4-.08,2.11,0,.35,0,.7,0,1.05,0,.14,0,.29,0,.45-.61-1-1.25-1.9-1.9-2.83l-.58-.8a16,16,0,0,1-.05-2.77c0-1,0-2,.06-3,0-.09-.15-.09-.15,0,0,1-.08,2.05-.13,3.07a17.75,17.75,0,0,0-.06,2.19c-1.52-2.06-3.13-4.05-4.76-6-.05-.07-.17,0-.11.09,1,1.28,2,2.59,2.92,3.91-1.85-.43-3.73-.68-5.61-1-.09,0-.13.13,0,.15,2,.3,3.94.8,5.9,1.23h0c.75,1.06,1.49,2.13,2.23,3.19.3.44.59.88.89,1.31h-.08l-.61-.08c-.44-.05-.87-.09-1.31-.12-.9-.07-1.81-.12-2.72-.17-.09,0-.09.15,0,.15.89,0,1.77.09,2.66.19l1.41.17.61.07.18,0,1.51,2.22c.89,1.31,1.68,2.72,2.62,4a.07.07,0,0,0,.13-.07A41.47,41.47,0,0,0,426.4,278.69Z" style="fill:#263238"></path><path d="M422.49,269.12c0-.33,0-.66,0-1a14.47,14.47,0,0,1,.08-2.08.08.08,0,1,0-.15,0c0,.68-.07,1.37-.11,2.06,0,.34,0,.68,0,1,0,.16,0,.32,0,.48a1.34,1.34,0,0,0,0,.49.07.07,0,0,0,.13,0,1.14,1.14,0,0,0,0-.45Z" style="fill:#263238"></path><path d="M420.55,272.63c-.59-.1-1.18-.13-1.77-.18s-1.3-.11-1.94-.19a.07.07,0,1,0,0,.14c1.24.08,2.47.31,3.72.35C420.6,272.75,420.62,272.64,420.55,272.63Z" style="fill:#263238"></path><path d="M425.48,272.68c0,.07,0,.25,0,.33v.27c0,.2,0,.4,0,.6v.59a1.31,1.31,0,0,0,0,.52,0,0,0,0,0,.06,0,.63.63,0,0,0,0-.24c0-.09,0-.18,0-.27V273c0-.09,0-.26,0-.33S425.38,272.54,425.48,272.68Z" style="fill:#263238"></path><path d="M418.81,313.09c-3.31-2.48-6.27-6-10.71-6.22-3.67-.14-6.24,2.62-7.71,5.69a32.35,32.35,0,0,0-1.79,5.06c-.67,2.32-1.29,4.65-1.88,7-1.15,4.61-2.14,9.26-2.94,13.93-.44,2.61-.86,5.23-1.19,7.85a67.92,67.92,0,0,0-.77,8,.42.42,0,0,0,.82.09c.45-2.19.63-4.46,1-6.68s.66-4.46,1-6.68q1.13-6.68,2.63-13.28c1-4.16,1.88-8.37,3.22-12.42,1-2.9,2.5-6.29,5.63-7.33,4.77-1.59,9.09,2.45,12.58,5.07C418.78,313.25,418.88,313.15,418.81,313.09Z" style="fill:#263238"></path><path d="M415.39,310.72s-3-8.7,1.36-10.4c6.6-2.56,23.87,16.9,20.48,46.7,0,0-13.34-7.35-23.19-15.62s-12.38-19.07-8-21.86S415.39,310.72,415.39,310.72Z" style="fill:#E8C066"></path><path d="M435.24,340.63a23.46,23.46,0,0,0-1.6-3c-.57-1-1.14-2-1.73-3-1.14-2-2.28-3.93-3.46-5.87-.19-.32-.39-.63-.58-.94,0-.12.05-.24.08-.35.06-.29.13-.58.19-.86.15-.65.26-1.3.38-1.95.24-1.28.46-2.57.81-3.82a.08.08,0,0,0-.15,0c-.27,1.27-.68,2.53-1.05,3.78-.19.61-.39,1.22-.55,1.84-.05.22-.11.43-.16.64-1.42-2.32-2.87-4.64-4.42-6.87a3.06,3.06,0,0,0,.15-1l.15-1.31c.12-1,.23-2,.38-2.93a55.1,55.1,0,0,1,1-5.71c0-.1-.12-.12-.15,0-.47,1.88-1,3.75-1.35,5.66-.17.93-.34,1.87-.46,2.81-.06.47-.11.94-.16,1.41l-.06.43c-.48-.68-1-1.35-1.46-2-1.52-2-3.1-4-4.69-5.91-.06-.08-.19,0-.13.08a106.18,106.18,0,0,1,7.51,11c.43.7.86,1.41,1.3,2.11l-.43-.06c-.56-.07-1.13-.1-1.69-.15-1.12-.11-2.24-.21-3.37-.3-2.24-.17-4.5-.31-6.74-.55-.1,0-.12.14,0,.15,2.28.26,4.54.62,6.8.94,1.11.16,2.23.31,3.34.45a13.51,13.51,0,0,0,2.58.27c.88,1.43,1.77,2.86,2.65,4.3a4,4,0,0,0-.6,0h-3.21l-4.35,0c-.09,0-.08.15,0,.15,1.47,0,2.93.09,4.39.17l2.09.13,1,.07a2,2,0,0,0,.92,0c.74,1.23,1.5,2.44,2.25,3.66s1.39,2.26,2.1,3.37a27.86,27.86,0,0,0,2.26,3.4C435.15,340.77,435.28,340.72,435.24,340.63Z" style="fill:#263238"></path><path d="M428.88,316.54a21.05,21.05,0,0,1-.59,2.84c-.25,1-.53,1.92-.84,2.86a.1.1,0,1,0,.18.06c.29-.94.56-1.89.79-2.84s.38-1.94.61-2.89C429.05,316.47,428.89,316.44,428.88,316.54Z" style="fill:#263238"></path><path d="M419.08,322.36a1.11,1.11,0,0,0-.73-.27l-1.26-.17c-.78-.11-1.56-.19-2.34-.28-1.63-.19-3.26-.35-4.88-.56-.1,0-.12.14,0,.15,1.54.19,3.06.42,4.59.62.75.1,1.5.21,2.25.29l1.09.12a4,4,0,0,1,1.24.22C419.08,322.51,419.13,322.42,419.08,322.36Z" style="fill:#263238"></path><path d="M428.86,335.47c-.77-.07-1.54-.09-2.31-.11l-1.17,0-.55,0a3,3,0,0,1-.73,0c-.11,0-.12.17,0,.15a3.87,3.87,0,0,1,.68,0l.61,0,1.16.07c.77,0,1.54.09,2.31.09A.08.08,0,0,0,428.86,335.47Z" style="fill:#263238"></path><path d="M433.56,332.14c.09-.44.17-.88.25-1.32l.48-2.57c0-.1-.13-.12-.15,0l-.57,2.51c-.09.42-.19.84-.27,1.26l-.12.58a1.42,1.42,0,0,0-.07.61c0,.07.12.13.16.06A3,3,0,0,0,433.56,332.14Z" style="fill:#263238"></path><polygon points="421.91 357.82 421.17 370.14 418.97 406.5 391.68 406.5 389.49 370.14 388.75 357.82 421.91 357.82" style="fill:#455a64"></polygon><polygon points="421.91 357.82 421.17 370.14 389.49 370.14 388.75 357.82 421.91 357.82" style="fill:#263238"></polygon><rect x="385.31" y="351.08" width="40.04" height="10.35" style="fill:#455a64"></rect></g><g id="freepik--Floor--inject-46"><polygon points="38.84 406.5 91.63 406.26 144.42 406.17 250 406 355.58 406.17 408.37 406.26 461.16 406.5 408.37 406.75 355.58 406.83 250 407 144.42 406.83 91.63 406.75 38.84 406.5" style="fill:#263238"></polygon></g><g id="freepik--Device--inject-46"><path d="M332.21,59.72H167.77a16.79,16.79,0,0,0-16.64,17V415.2a16.8,16.8,0,0,0,16.64,16.95H332.21a16.81,16.81,0,0,0,16.66-16.95V76.67A16.8,16.8,0,0,0,332.21,59.72Zm6.26,345c0,8.91-6.67,16.12-14.9,16.12H176.44c-8.25,0-14.92-7.21-14.92-16.12V89.5c0-18.15,6.67-19,14.92-19h29.47c1.71,0,3.11,2,3.11,4.36v1c0,5.65,3.1,5.67,6.9,5.67h68.15c3.83,0,6.9,0,6.9-5.67v-1c0-2.41,1.38-4.36,3.12-4.36h29.48c8.23,0,14.9,2.41,14.9,19Z" style="fill:#263238"></path><path d="M259.29,74.47H240.7a1.15,1.15,0,0,1-1.15-1.15h0a1.15,1.15,0,0,1,1.15-1.14h18.59a1.14,1.14,0,0,1,1.15,1.14h0A1.14,1.14,0,0,1,259.29,74.47Z" style="fill:#fff"></path><path d="M338.47,89.5V404.74c0,8.91-6.67,16.12-14.9,16.12H176.45c-8.25,0-14.93-7.21-14.93-16.12V89.5c0-18.15,6.68-19,14.93-19h29.46c1.71,0,3.11,2,3.11,4.36v1c0,5.65,3.1,5.67,6.9,5.67h68.15c3.84,0,6.9,0,6.9-5.67v-1c0-2.41,1.38-4.36,3.12-4.36h29.48C331.8,70.46,338.47,72.87,338.47,89.5Z" style="fill:#fff"></path><path d="M338.47,89.5V113h-177V89.5c0-18.15,6.67-19,14.92-19h29.48c1.71,0,3.11,2,3.11,4.36v1c0,5.65,3.09,5.67,6.89,5.67h68.15c3.83,0,6.91,0,6.91-5.67v-1c0-2.41,1.38-4.36,3.12-4.36h29.46C331.79,70.46,338.47,72.87,338.47,89.5Z" style="fill:#E8C066"></path><polygon points="179.43 102.64 174.2 97.74 179.43 92.84 180.24 93.71 175.94 97.74 180.24 101.77 179.43 102.64" style="fill:#fff"></polygon><path d="M324.77,94.69a1,1,0,1,1-1-1A1,1,0,0,1,324.77,94.69Z" style="fill:#fff"></path><path d="M324.77,98.35a1,1,0,1,1-1-1A1,1,0,0,1,324.77,98.35Z" style="fill:#fff"></path><path d="M324.77,102a1,1,0,1,1-1-1A1,1,0,0,1,324.77,102Z" style="fill:#fff"></path><path d="M238.57,100.91V96a.45.45,0,0,1,.46-.46.46.46,0,0,1,.47.46v2h2.18V96a.45.45,0,0,1,.46-.46.46.46,0,0,1,.47.46v5a.46.46,0,0,1-.47.46.45.45,0,0,1-.46-.46v-2H239.5v2a.46.46,0,0,1-.47.46A.45.45,0,0,1,238.57,100.91Z" style="fill:#fff"></path><path d="M248.91,96.22a3.07,3.07,0,0,1,.85,2.13,3,3,0,0,1-.85,2.12,2.72,2.72,0,0,1-2,.9,2.82,2.82,0,0,1-2.06-.9,3,3,0,0,1-.83-2.12,3.1,3.1,0,0,1,.83-2.13,2.82,2.82,0,0,1,2.06-.9A2.72,2.72,0,0,1,248.91,96.22Zm-.1,2.13a2.16,2.16,0,0,0-.58-1.47,1.79,1.79,0,0,0-1.32-.6,1.82,1.82,0,0,0-1.36.6,2.11,2.11,0,0,0-.58,1.47,2.07,2.07,0,0,0,.58,1.46,1.82,1.82,0,0,0,1.36.6,1.79,1.79,0,0,0,1.32-.6A2.12,2.12,0,0,0,248.81,98.35Z" style="fill:#fff"></path><path d="M256.14,96v5a.47.47,0,0,1-.47.46.46.46,0,0,1-.46-.46V97.37L254,99.05a.46.46,0,0,1-.38.2h0a.46.46,0,0,1-.39-.2L252,97.37v3.54a.47.47,0,0,1-.93,0V96a.47.47,0,0,1,.46-.46h0a.45.45,0,0,1,.37.19L253.61,98l1.68-2.32a.45.45,0,0,1,.37-.19h0A.48.48,0,0,1,256.14,96Z" style="fill:#fff"></path><path d="M257.76,100.91V96a.45.45,0,0,1,.46-.46H261a.47.47,0,0,1,.46.46.47.47,0,0,1-.46.47h-2.28V98h2a.47.47,0,0,1,0,.93h-2v1.55H261a.47.47,0,0,1,0,.93h-2.72s0,0,0,0h0A.46.46,0,0,1,257.76,100.91Z" style="fill:#fff"></path><g id="freepik--u5Zjqx--inject-46"><path d="M200.83,77.54l-.29.28-.16.17a3.87,3.87,0,0,0-5.49,0l-.15-.16-.28-.28h0l.36-.32a3.78,3.78,0,0,1,.83-.53,4.26,4.26,0,0,1,1.11-.37c.18,0,.36,0,.55-.08s.47,0,.48,0l.38,0a4.52,4.52,0,0,1,1,.25,3.81,3.81,0,0,1,.68.32,4.81,4.81,0,0,1,.66.45l.3.27Z" style="fill:#fff"></path><path d="M195.79,78.88l-.45-.45a3.27,3.27,0,0,1,4.59,0l-.45.45a2.62,2.62,0,0,0-3.69,0Z" style="fill:#fff"></path><path d="M199,79.33l-.45.45a1.32,1.32,0,0,0-.94-.39,1.34,1.34,0,0,0-.95.39l-.44-.45A2,2,0,0,1,199,79.33Z" style="fill:#fff"></path><path d="M198,80.18a.41.41,0,1,1-.4-.4A.4.4,0,0,1,198,80.18Z" style="fill:#fff"></path></g><path d="M173.06,78.4a1.18,1.18,0,1,1,1.17,1.17A1.17,1.17,0,0,1,173.06,78.4Z" style="fill:#fff"></path><path d="M176.75,78.4a1.18,1.18,0,1,1,1.18,1.17A1.17,1.17,0,0,1,176.75,78.4Z" style="fill:#fff"></path><path d="M180.45,78.4a1.17,1.17,0,1,1,1.17,1.17A1.17,1.17,0,0,1,180.45,78.4Z" style="fill:#fff"></path><path d="M184.14,78.4a1.18,1.18,0,1,1,1.17,1.17A1.17,1.17,0,0,1,184.14,78.4Z" style="fill:#fff"></path><path d="M187.84,78.4A1.17,1.17,0,1,1,189,79.57,1.17,1.17,0,0,1,187.84,78.4Z" style="fill:#fff"></path><path d="M325.2,81h-9.56V76.53h9.56Zm-9.06-.5h8.56V77h-8.56Z" style="fill:#fff"></path><rect x="316.44" y="77.29" width="6.15" height="2.92" style="fill:#fff"></rect><rect x="325.2" y="77.57" width="0.85" height="2.37" style="fill:#fff"></rect><polygon points="188.41 401.58 187.06 401.58 187.06 407.76 184.55 407.76 184.55 404.62 180.1 404.62 180.1 407.76 177.59 407.76 177.59 401.58 176.24 401.58 182.32 395.3 188.41 401.58" style="fill:#ebebeb"></polygon><rect x="309.1" y="395.3" width="14.67" height="2.1" style="fill:#ebebeb"></rect><rect x="309.1" y="400.48" width="14.67" height="2.1" style="fill:#ebebeb"></rect><rect x="309.1" y="405.67" width="14.67" height="2.1" style="fill:#ebebeb"></rect><polygon points="254.17 400.7 250 405.15 245.83 400.7 246.57 400.01 250 403.67 253.44 400.01 254.17 400.7" style="fill:#ebebeb"></polygon><path d="M250,409.75a7.58,7.58,0,1,1,7.58-7.58A7.59,7.59,0,0,1,250,409.75Zm0-14.15a6.58,6.58,0,1,0,6.58,6.57A6.58,6.58,0,0,0,250,395.6Z" style="fill:#ebebeb"></path><rect x="191.16" y="378.98" width="126.24" height="6.08" style="fill:#ebebeb"></rect><path d="M186.74,385a3.39,3.39,0,0,1-5.09-2.09,3.4,3.4,0,1,1,5.09,2.09Z" style="fill:#dbdbdb"></path><path d="M186,381.68a1,1,0,1,1-2.07,0,1,1,0,0,1,2.07,0Z" style="fill:#fff"></path><path d="M186.74,384.54V385a3.41,3.41,0,0,1-3.58,0v-.43a1.79,1.79,0,1,1,3.58,0Z" style="fill:#fff"></path><path d="M196,382.61h-1.1l-.22.57a.08.08,0,0,1-.08.05h0a.09.09,0,0,1-.05-.11l.84-2.25a.1.1,0,0,1,.08-.05.09.09,0,0,1,.09.05l.84,2.25a.1.1,0,0,1-.05.11h0a.1.1,0,0,1-.08-.05Zm-1-.17h1l-.49-1.3Z" style="fill:#a6a6a6"></path><path d="M198.13,382.9a.8.8,0,0,1-.65.33.85.85,0,0,1,0-1.69.8.8,0,0,1,.65.33v-1a.09.09,0,0,1,.09-.09.09.09,0,0,1,.08.09v2.25a.09.09,0,0,1-.08.08.09.09,0,0,1-.09-.08Zm0-.48v-.06a.65.65,0,1,0-.65.7A.65.65,0,0,0,198.13,382.42Z" style="fill:#a6a6a6"></path><path d="M200.41,382.9a.8.8,0,0,1-.65.33.85.85,0,0,1,0-1.69.8.8,0,0,1,.65.33v-1a.09.09,0,0,1,.09-.09.09.09,0,0,1,.08.09v2.25a.09.09,0,0,1-.08.08.09.09,0,0,1-.09-.08Zm0-.48v-.06a.66.66,0,0,0-.65-.65.68.68,0,0,0,0,1.35A.65.65,0,0,0,200.41,382.42Z" style="fill:#a6a6a6"></path><path d="M203.8,381.62v1.53a.09.09,0,0,1-.08.08.09.09,0,0,1-.09-.08v-.25a.77.77,0,0,1-.63.33.85.85,0,0,1,0-1.69.77.77,0,0,1,.63.33v-.25a.08.08,0,0,1,.09-.08A.08.08,0,0,1,203.8,381.62Zm-.17.76a.65.65,0,0,0-.63-.68.69.69,0,1,0,.63.68Z" style="fill:#a6a6a6"></path><path d="M205.44,382.38a.85.85,0,0,1,.87-.84.92.92,0,0,1,.54.18.09.09,0,0,1-.11.13.72.72,0,0,0-.43-.15.69.69,0,1,0,0,1.37.72.72,0,0,0,.43-.15.09.09,0,0,1,.12,0,.08.08,0,0,1,0,.12.87.87,0,0,1-.53.18A.85.85,0,0,1,205.44,382.38Z" style="fill:#a6a6a6"></path><path d="M208.2,381.54a.85.85,0,1,1-.8.84A.82.82,0,0,1,208.2,381.54Zm0,1.53a.69.69,0,1,0-.63-.69A.67.67,0,0,0,208.2,383.07Z" style="fill:#a6a6a6"></path><path d="M212.07,382.23a.54.54,0,0,0-.53-.53.52.52,0,0,0-.52.53v.92h0s0,0,0,0h-.12v-.92a.52.52,0,0,0-.52-.53.53.53,0,0,0-.53.53v.92a.09.09,0,0,1,0,.07h-.06a.09.09,0,0,1-.07-.06v-1.55a.09.09,0,0,1,.08-.08.08.08,0,0,1,.08.08v.16a.69.69,0,0,1,1.13.12.71.71,0,0,1,.61-.36.69.69,0,0,1,.69.69v.92a.09.09,0,0,1-.09.08.08.08,0,0,1-.07-.08Z" style="fill:#a6a6a6"></path><path d="M215.36,382.23a.54.54,0,0,0-.53-.53.52.52,0,0,0-.52.53v.92h0s0,0,0,0h-.12v-.92a.52.52,0,0,0-.52-.53.53.53,0,0,0-.53.53v.92a.09.09,0,0,1,0,.07H213a.09.09,0,0,1-.07-.06v-1.55a.09.09,0,0,1,.08-.08.08.08,0,0,1,.08.08v.16a.69.69,0,0,1,1.13.12.71.71,0,0,1,.61-.36.69.69,0,0,1,.69.69v.92a.09.09,0,0,1-.09.08.08.08,0,0,1-.07-.08Z" style="fill:#a6a6a6"></path><path d="M216.1,382.39a.82.82,0,0,1,1.64-.06h0a.09.09,0,0,1-.08.08h-1.39a.66.66,0,0,0,.65.65.63.63,0,0,0,.55-.31.08.08,0,0,1,.11,0,.1.1,0,0,1,0,.12.82.82,0,0,1-.69.38A.83.83,0,0,1,216.1,382.39Zm.18-.14h1.28a.67.67,0,0,0-.64-.55A.65.65,0,0,0,216.28,382.25Z" style="fill:#a6a6a6"></path><path d="M219.54,382.23a.52.52,0,0,0-.52-.52.53.53,0,0,0-.53.52v.92h0a.05.05,0,0,1,0,0,.06.06,0,0,1-.06,0h0s0,0-.06,0h0v-1.55a.08.08,0,0,1,.16,0v.17a.67.67,0,0,1,.53-.25.68.68,0,0,1,.68.69v.92a.07.07,0,0,1-.08.08.08.08,0,0,1-.08-.08Z" style="fill:#a6a6a6"></path><path d="M221,381.62a.09.09,0,0,1-.08.08h-.22v1.24a.13.13,0,0,0,.12.12.11.11,0,0,1,.09.09.1.1,0,0,1-.09.08.28.28,0,0,1-.29-.29V381.7h-.22c-.08,0-.08,0-.08-.08s0-.08.08-.08h.22v-.63a.09.09,0,0,1,.08-.08.1.1,0,0,1,.09.08v.63H221A.09.09,0,0,1,221,381.62Z" style="fill:#a6a6a6"></path><path d="M222,382.89a.17.17,0,0,1,0,.34.17.17,0,1,1,0-.34Z" style="fill:#a6a6a6"></path><path d="M222.76,382.89a.17.17,0,1,1,0,.34.17.17,0,1,1,0-.34Z" style="fill:#a6a6a6"></path><path d="M223.56,382.89a.17.17,0,0,1,0,.34.17.17,0,0,1,0-.34Z" style="fill:#a6a6a6"></path><polygon points="166.35 132.51 165.25 132.51 165.25 130.31 167.46 130.31 167.46 131.41 166.35 131.41 166.35 132.51" style="fill:#dbdbdb"></polygon><path d="M166.35,219.24h-1.1v-3.33h1.1Zm0-6.67h-1.1v-3.33h1.1Zm0-6.67h-1.1v-3.33h1.1Zm0-6.67h-1.1v-3.34h1.1Zm0-6.67h-1.1v-3.34h1.1Zm0-6.67h-1.1v-3.34h1.1Zm0-6.68h-1.1v-3.33h1.1Zm0-6.67h-1.1v-3.33h1.1Zm0-6.67h-1.1v-3.34h1.1Zm0-6.67h-1.1v-3.34h1.1Zm0-6.67h-1.1v-3.34h1.1Zm0-6.68h-1.1v-3.33h1.1Zm0-6.67h-1.1v-3.33h1.1Z" style="fill:#dbdbdb"></path><polygon points="167.46 224.78 165.25 224.78 165.25 222.58 166.35 222.58 166.35 223.68 167.46 223.68 167.46 224.78" style="fill:#dbdbdb"></polygon><path d="M329.16,224.78h-3.37v-1.1h3.37Zm-6.74,0h-3.36v-1.1h3.36Zm-6.73,0h-3.37v-1.1h3.37Zm-6.74,0h-3.37v-1.1H309Zm-6.74,0h-3.37v-1.1h3.37Zm-6.74,0H292.1v-1.1h3.37Zm-6.74,0h-3.36v-1.1h3.36Zm-6.73,0h-3.37v-1.1H282Zm-6.74,0h-3.37v-1.1h3.37Zm-6.74,0h-3.37v-1.1h3.37Zm-6.74,0h-3.36v-1.1h3.36Zm-6.73,0h-3.37v-1.1h3.37Zm-6.74,0h-3.37v-1.1h3.37Zm-6.74,0H238.2v-1.1h3.37Zm-6.74,0h-3.37v-1.1h3.37Zm-6.74,0h-3.36v-1.1h3.36Zm-6.73,0H218v-1.1h3.37Zm-6.74,0h-3.37v-1.1h3.37Zm-6.74,0h-3.37v-1.1h3.37Zm-6.74,0h-3.37v-1.1h3.37Zm-6.73,0H191v-1.1h3.37Zm-6.74,0H184.3v-1.1h3.37Zm-6.74,0h-3.37v-1.1h3.37Zm-6.74,0h-3.37v-1.1h3.37Z" style="fill:#dbdbdb"></path><polygon points="334.73 224.78 332.53 224.78 332.53 223.68 333.63 223.68 333.63 222.58 334.73 222.58 334.73 224.78" style="fill:#dbdbdb"></polygon><path d="M334.73,219.24h-1.1v-3.33h1.1Zm0-6.67h-1.1v-3.33h1.1Zm0-6.67h-1.1v-3.34h1.1Zm0-6.67h-1.1v-3.34h1.1Zm0-6.67h-1.1v-3.34h1.1Zm0-6.67h-1.1v-3.34h1.1Zm0-6.68h-1.1v-3.33h1.1Zm0-6.67h-1.1v-3.33h1.1Zm0-6.67h-1.1v-3.34h1.1Zm0-6.67h-1.1v-3.34h1.1Zm0-6.67h-1.1v-3.34h1.1Zm0-6.68h-1.1v-3.33h1.1Zm0-6.67h-1.1v-3.33h1.1Z" style="fill:#dbdbdb"></path><polygon points="334.73 132.51 333.63 132.51 333.63 131.41 332.53 131.41 332.53 130.31 334.73 130.31 334.73 132.51" style="fill:#dbdbdb"></polygon><path d="M329.16,131.41h-3.37v-1.1h3.37Zm-6.74,0h-3.37v-1.1h3.37Zm-6.73,0h-3.37v-1.1h3.37Zm-6.74,0h-3.37v-1.1H309Zm-6.74,0h-3.37v-1.1h3.37Zm-6.74,0H292.1v-1.1h3.37Zm-6.74,0h-3.36v-1.1h3.36Zm-6.73,0h-3.37v-1.1H282Zm-6.74,0h-3.37v-1.1h3.37Zm-6.74,0h-3.37v-1.1h3.37Zm-6.74,0h-3.37v-1.1h3.37Zm-6.73,0h-3.37v-1.1h3.37Zm-6.74,0h-3.37v-1.1h3.37Zm-6.74,0H238.2v-1.1h3.37Zm-6.74,0h-3.37v-1.1h3.37Zm-6.74,0h-3.36v-1.1h3.36Zm-6.73,0H218v-1.1h3.37Zm-6.74,0h-3.37v-1.1h3.37Zm-6.74,0h-3.37v-1.1h3.37Zm-6.74,0h-3.37v-1.1h3.37Zm-6.73,0H191v-1.1h3.37Zm-6.74,0H184.3v-1.1h3.37Zm-6.74,0h-3.37v-1.1h3.37Zm-6.74,0h-3.37v-1.1h3.37Z" style="fill:#dbdbdb"></path><path d="M181.64,360.53a3.29,3.29,0,1,1,4,2.42A3.29,3.29,0,0,1,181.64,360.53Z" style="fill:#455a64"></path><g id="freepik--xsrjP0--inject-46"><path d="M184.41,361.12c-.08-.05-.15-.13-.27-.11s0,0,0-.06c0-.42,0-.85,0-1.27a.07.07,0,0,1,0-.08c.32-.16.46-.48.66-.76a1.27,1.27,0,0,0,.23-1c0-.1,0-.14.12-.16a.2.2,0,0,1,.24.07,1.85,1.85,0,0,1,.19.56,2,2,0,0,1-.06.48c0,.11,0,.23-.06.35s.06,0,.09,0h1.08c.15,0,.22.05.24.15a.29.29,0,0,1-.15.31s-.08,0-.08,0,.05,0,.07.06.11.27,0,.38-.11,0-.11.06.07,0,.09.07a.24.24,0,0,1-.1.38l-.06,0s0,0,0,.05a.22.22,0,0,1,0,.38l-.05,0a.33.33,0,0,1-.19,0h-1.69A.21.21,0,0,1,184.41,361.12Z" style="fill:#fff;fill-rule:evenodd"></path><path d="M182.81,360.38v-.81c0-.05,0-.08.07-.08h1c.06,0,.07,0,.07.07,0,.55,0,1.09,0,1.63,0,.07,0,.09-.09.09h-1c-.08,0-.09,0-.09-.1Z" style="fill:#fff;fill-rule:evenodd"></path></g><rect x="181.7" y="367.71" width="135.71" height="0.22" style="fill:#ebebeb"></rect><rect x="173.23" y="121.65" width="152.65" height="0.25" style="fill:#ebebeb"></rect><rect x="181.7" y="376.15" width="135.71" height="0.22" style="fill:#ebebeb"></rect><rect x="173.23" y="393.25" width="152.65" height="0.25" style="fill:#ebebeb"></rect><path d="M215.2,373.42h0a.09.09,0,0,1-.09-.09v-2.58a.09.09,0,0,1,.09-.09.09.09,0,0,1,.1.09v2.48h1.33a.09.09,0,0,1,.09.1.09.09,0,0,1-.09.09Z" style="fill:#a6a6a6"></path><path d="M217.29,371a.1.1,0,0,1,.09-.1.1.1,0,0,1,.1.1V371a.09.09,0,0,1-.1.1.09.09,0,0,1-.09-.1Zm0,.63a.09.09,0,0,1,.09-.09.09.09,0,0,1,.1.09v1.75a.09.09,0,0,1-.1.09.09.09,0,0,1-.09-.09Z" style="fill:#a6a6a6"></path><path d="M218.39,370.75a.1.1,0,0,1,.2,0v1.86l1.14-1.14a.1.1,0,1,1,.14.14l-.75.74.75.92a.09.09,0,0,1,0,.13.07.07,0,0,1-.06,0,.08.08,0,0,1-.08,0l-.74-.9-.39.4v.44a.1.1,0,0,1-.2,0Z" style="fill:#a6a6a6"></path><path d="M220.37,372.46a1,1,0,0,1,.94-1,.94.94,0,0,1,.93.9h0a.08.08,0,0,1-.09.09h-1.59a.77.77,0,0,0,.75.75.73.73,0,0,0,.63-.36.09.09,0,0,1,.12,0,.1.1,0,0,1,0,.14.91.91,0,0,1-.78.43A1,1,0,0,1,220.37,372.46Zm.2-.15H222a.74.74,0,0,0-.73-.63A.76.76,0,0,0,220.57,372.31Z" style="fill:#a6a6a6"></path><g id="freepik--xsrjp0--inject-46"><path d="M206.76,373.87a.38.38,0,0,1-.23-.07l-.06-.05a.37.37,0,0,0-.19-.08.13.13,0,0,1-.12,0,.18.18,0,0,1,0-.14v-1.56a.19.19,0,0,1,.1-.19,1.54,1.54,0,0,0,.6-.64l.17-.25a1.43,1.43,0,0,0,.26-1.1.27.27,0,0,1,.23-.32.37.37,0,0,1,.42.15,2.26,2.26,0,0,1,.24.72,1.16,1.16,0,0,1,0,.42l0,.19c0,.1,0,.2-.05.3h1.29c.09,0,.35,0,.41.26a.44.44,0,0,1-.2.47.34.34,0,0,1,.11.24.46.46,0,0,1-.21.37h0a.34.34,0,0,1,.1.3.45.45,0,0,1-.22.32.35.35,0,0,1,.09.23.4.4,0,0,1-.19.33l-.05,0a.48.48,0,0,1-.29.07h-2.09Zm-.42-.42a.69.69,0,0,1,.26.12l.06,0v0l.11,0h2.06c.08,0,.13,0,.16,0l.06,0a.19.19,0,0,0,.1-.15.17.17,0,0,0-.09-.13.14.14,0,0,1-.07-.13.16.16,0,0,1,.07-.12l.07,0a.23.23,0,0,0,.15-.17.15.15,0,0,0,0-.11c-.06,0-.15-.06-.15-.17a.18.18,0,0,1,.15-.17.23.23,0,0,0,.14-.18.13.13,0,0,0-.06-.1c-.12,0-.14-.11-.14-.17a.17.17,0,0,1,.16-.15.23.23,0,0,0,.13-.25s0-.09-.19-.09H208a.23.23,0,0,1-.18,0l-.06,0,0-.2a2.93,2.93,0,0,0,.05-.29l0-.2a1.14,1.14,0,0,0,0-.36,2,2,0,0,0-.22-.64s-.09-.05-.17,0-.06,0-.06.07a1.66,1.66,0,0,1-.3,1.26,1.43,1.43,0,0,0-.16.24,1.89,1.89,0,0,1-.67.71Zm0,.05-.11,0h.12Z" style="fill:#a6a6a6"></path><path d="M204.75,374a.2.2,0,0,1-.16-.06.21.21,0,0,1-.06-.17v-2a.18.18,0,0,1,.05-.16.21.21,0,0,1,.15,0h1.2a.18.18,0,0,1,.15,0,.22.22,0,0,1,0,.16c0,.66,0,1.32,0,2a.28.28,0,0,1,0,.17.23.23,0,0,1-.17.05Zm0-1.22v.26c0,.24,0,.49,0,.73h1.17c0-.67,0-1.32,0-2h-1.16v1Z" style="fill:#a6a6a6"></path></g><path d="M283.35,370.62a1.49,1.49,0,0,1,.89.3.09.09,0,0,1,0,.14.09.09,0,0,1-.13,0,1.27,1.27,0,0,0-.78-.27,1.21,1.21,0,1,0,0,2.42,1.17,1.17,0,0,0,.77-.27.1.1,0,0,1,.14,0,.08.08,0,0,1,0,.13,1.42,1.42,0,1,1-.89-2.5Z" style="fill:#a6a6a6"></path><path d="M285.83,371.49a1,1,0,1,1-.92,1A.94.94,0,0,1,285.83,371.49Zm0,1.75a.76.76,0,0,0,.72-.78.73.73,0,1,0-1.45,0A.76.76,0,0,0,285.83,373.24Z" style="fill:#a6a6a6"></path><path d="M290.24,372.28a.6.6,0,1,0-1.19,0v1.07h0l0,.05h-.14v0h0v-1.05a.6.6,0,1,0-1.19,0v1.05a.1.1,0,0,1,0,.08h-.07s-.06,0-.08-.07v-1.77a.1.1,0,0,1,.09-.09.09.09,0,0,1,.1.09v.19a.77.77,0,0,1,.6-.28.8.8,0,0,1,.69.41.81.81,0,0,1,.69-.41.79.79,0,0,1,.79.79v1.05a.09.09,0,0,1-.1.09.09.09,0,0,1-.09-.09Z" style="fill:#a6a6a6"></path><path d="M294,372.28a.61.61,0,0,0-.61-.6.6.6,0,0,0-.59.6v1.07h0a.07.07,0,0,1,0,.05h-.14v0h0v-1.05a.59.59,0,0,0-.59-.6.6.6,0,0,0-.6.6v1.05a.1.1,0,0,1,0,.08h-.07s-.06,0-.08-.07v-1.77a.1.1,0,0,1,.1-.09.09.09,0,0,1,.09.09v.19a.78.78,0,0,1,.6-.28.8.8,0,0,1,.69.41.81.81,0,0,1,.69-.41.79.79,0,0,1,.79.79v1.05a.09.09,0,1,1-.18,0Z" style="fill:#a6a6a6"></path><path d="M294.86,372.46a1,1,0,0,1,.94-1,.94.94,0,0,1,.93.9h0a.08.08,0,0,1-.09.09h-1.59a.77.77,0,0,0,.75.75.73.73,0,0,0,.62-.36.11.11,0,0,1,.13,0,.11.11,0,0,1,0,.14.92.92,0,0,1-.78.43A1,1,0,0,1,294.86,372.46Zm.2-.15h1.46a.74.74,0,0,0-.72-.63A.75.75,0,0,0,295.06,372.31Z" style="fill:#a6a6a6"></path><path d="M298.79,372.28a.6.6,0,0,0-.6-.6.61.61,0,0,0-.6.6v1.07l0,0a.09.09,0,0,1-.07,0h0a.08.08,0,0,1-.07-.05h0v-1.76a.09.09,0,0,1,.1-.1.09.09,0,0,1,.09.1v.18a.78.78,0,0,1,.6-.28.79.79,0,0,1,.79.79v1.05a.1.1,0,0,1-.1.09.09.09,0,0,1-.09-.09Z" style="fill:#a6a6a6"></path><path d="M300.5,371.58a.1.1,0,0,1-.09.1h-.25v1.41a.16.16,0,0,0,.14.14.11.11,0,0,1,.1.1.1.1,0,0,1-.1.09.33.33,0,0,1-.34-.33v-1.41h-.24c-.09,0-.09-.05-.09-.1s0-.09.09-.09H300v-.72a.1.1,0,0,1,.2,0v.72h.25A.09.09,0,0,1,300.5,371.58Z" style="fill:#a6a6a6"></path><path d="M275.26,373.66c-1.25,0-2.27-.77-2.27-1.71s1-1.7,2.27-1.7,2.27.76,2.27,1.7a1.39,1.39,0,0,1-.2.71l.36.8-.92-.23A2.79,2.79,0,0,1,275.26,373.66Zm0-3.19c-1.13,0-2,.67-2,1.48s.91,1.49,2,1.49a2.44,2.44,0,0,0,1.43-.43l0,0,.57.15-.22-.49,0-.05a1.18,1.18,0,0,0,.2-.64C277.31,371.14,276.39,370.47,275.26,370.47Z" style="fill:#a6a6a6"></path><path d="M291.13,361.45l1.18-1.07a.66.66,0,0,0,.22-.48.67.67,0,0,0-.17-.44.66.66,0,0,0-.48-.21.65.65,0,0,0-.45.17l-.12.11a.09.09,0,0,1-.12-.13l.13-.11a.82.82,0,0,1,1.17,0,.85.85,0,0,1,.21.56.82.82,0,0,1-.27.61l-1,.92h1.2a.09.09,0,0,1,0,.18h-1.43a.09.09,0,0,1-.07,0A.09.09,0,0,1,291.13,361.45Z" style="fill:#c7c7c7"></path><path d="M294.42,361.13a.08.08,0,0,1,.11,0,1.42,1.42,0,0,0,.83.33,1,1,0,0,0,.56-.17.47.47,0,0,0,.22-.38.39.39,0,0,0-.21-.34,1.75,1.75,0,0,0-.59-.21h0a1.57,1.57,0,0,1-.6-.21.52.52,0,0,1-.26-.44.59.59,0,0,1,.26-.48,1,1,0,0,1,.61-.18,1.41,1.41,0,0,1,.79.29.09.09,0,0,1,0,.11.07.07,0,0,1-.11,0,1.27,1.27,0,0,0-.7-.26.88.88,0,0,0-.51.15.42.42,0,0,0-.2.35.34.34,0,0,0,.19.3,1.45,1.45,0,0,0,.54.2h0a1.52,1.52,0,0,1,.64.23.56.56,0,0,1,.28.47.63.63,0,0,1-.29.51,1.12,1.12,0,0,1-.65.2,1.58,1.58,0,0,1-.93-.36A.08.08,0,0,1,294.42,361.13Z" style="fill:#c7c7c7"></path><path d="M298.21,360.53a.56.56,0,0,0-1.12,0v1h0s0,0,0,0h0a.07.07,0,0,1-.06,0h0a.09.09,0,0,1-.07,0l0,0v-2.39a.09.09,0,0,1,.18,0v.93a.71.71,0,0,1,.56-.26.71.71,0,0,1,.74.7v1a.09.09,0,1,1-.18,0Z" style="fill:#c7c7c7"></path><path d="M300.76,359.92v1.6a.09.09,0,0,1-.08.09.09.09,0,0,1-.09-.09v-.26a.82.82,0,0,1-.67.35.89.89,0,0,1,0-1.78.82.82,0,0,1,.67.35v-.26a.09.09,0,0,1,.09-.09A.09.09,0,0,1,300.76,359.92Zm-.17.8a.67.67,0,1,0-1.33,0,.67.67,0,1,0,1.33,0Z" style="fill:#c7c7c7"></path><path d="M301.52,359.92a.08.08,0,0,1,.09-.08.08.08,0,0,1,.08.08v.39l0,0a.85.85,0,0,1,.71-.43.08.08,0,0,1,.09.08.09.09,0,0,1-.09.09.66.66,0,0,0-.52.29,1.75,1.75,0,0,0-.21.41v.81a.09.09,0,0,1-.08.09.09.09,0,0,1-.09-.09Z" style="fill:#c7c7c7"></path><path d="M302.8,360.72a.86.86,0,0,1,1.72-.06h0a.08.08,0,0,1-.09.08H303a.69.69,0,0,0,.68.68.67.67,0,0,0,.58-.32.08.08,0,0,1,.11,0,.1.1,0,0,1,0,.13.85.85,0,0,1-.72.4A.88.88,0,0,1,302.8,360.72Zm.19-.14h1.34a.68.68,0,0,0-1.34,0Z" style="fill:#c7c7c7"></path><path d="M305,361.24a.08.08,0,0,1,.12,0,1,1,0,0,0,.55.2.51.51,0,0,0,.34-.11.26.26,0,0,0,.13-.21c0-.09,0-.14-.13-.22a.82.82,0,0,0-.37-.13h0a1,1,0,0,1-.4-.14.37.37,0,0,1-.2-.32.44.44,0,0,1,.2-.35.76.76,0,0,1,.43-.12,1,1,0,0,1,.53.19.11.11,0,0,1,0,.13.08.08,0,0,1-.12,0,.82.82,0,0,0-.44-.17.57.57,0,0,0-.34.1.27.27,0,0,0-.11.2.26.26,0,0,0,.1.18.89.89,0,0,0,.37.12h0a1.28,1.28,0,0,1,.43.15.42.42,0,0,1,.2.36.45.45,0,0,1-.2.36.72.72,0,0,1-.44.14,1.11,1.11,0,0,1-.66-.26A.08.08,0,0,1,305,361.24Z" style="fill:#c7c7c7"></path><path d="M192.46,359.33l-.36.21h0a.09.09,0,0,1-.08,0,.08.08,0,0,1,0-.12l.49-.3a.09.09,0,0,1,.11,0,.07.07,0,0,1,0,.06v2.33a.09.09,0,1,1-.18,0Z" style="fill:#263238"></path><path d="M194.79,359.23l-.65.68a.76.76,0,0,1,.43.23.86.86,0,0,1,0,1.21.87.87,0,0,1-.61.26.83.83,0,0,1-.6-.26.08.08,0,0,1,.12-.12.7.7,0,0,0,.48.19.67.67,0,0,0,.68-.67.68.68,0,0,0-.67-.68.12.12,0,0,1-.08,0h0a.09.09,0,0,1,0-.13l.63-.65h-1a.09.09,0,1,1,0-.18h1.18a.09.09,0,0,1,.09.09s0,0,0,0Z" style="fill:#263238"></path><polygon points="315.36 360.2 317.47 360.2 316.41 361.49 315.36 360.2" style="fill:#c7c7c7"></polygon><path d="M314.13,328.89a.42.42,0,0,1,.42.42.41.41,0,0,1-.42.41.41.41,0,0,1-.41-.41A.41.41,0,0,1,314.13,328.89Z"></path><path d="M315.42,328.89a.42.42,0,0,1,.42.42.41.41,0,0,1-.42.41.41.41,0,0,1-.41-.41A.41.41,0,0,1,315.42,328.89Z"></path><path d="M316.71,328.89a.43.43,0,0,1,.43.42.42.42,0,0,1-.43.41.41.41,0,0,1-.41-.41A.42.42,0,0,1,316.71,328.89Z"></path><path d="M208.62,336.55a.26.26,0,0,1-.26.26.27.27,0,0,1-.25-.19.17.17,0,0,1,0-.07v-2.78a.25.25,0,0,1,.26-.26.26.26,0,0,1,.26.26v.82a1.07,1.07,0,0,1,.5-.14,1,1,0,0,1,1,1v1.07a.25.25,0,0,1-.26.26.26.26,0,0,1-.26-.26v-1.07a.51.51,0,0,0-1,0Z" style="fill:#c7c7c7"></path><path d="M212.44,334.7a.25.25,0,0,1-.25.25.45.45,0,0,0-.28.09.8.8,0,0,0-.22.23,1.45,1.45,0,0,0-.19.39v.9a.26.26,0,0,1-.26.25.25.25,0,0,1-.25-.25V334.7a.25.25,0,0,1,.25-.24.25.25,0,0,1,.26.24v0a.43.43,0,0,1,.1-.09,1,1,0,0,1,.59-.18A.25.25,0,0,1,212.44,334.7Z" style="fill:#c7c7c7"></path><path d="M213,336.13a.24.24,0,0,1,.35,0,.83.83,0,0,0,.52.2.61.61,0,0,0,.32-.09.19.19,0,0,0,.08-.14s0,0,0,0a.11.11,0,0,0-.06-.06,1,1,0,0,0-.38-.13h0a2.2,2.2,0,0,1-.41-.12.88.88,0,0,1-.33-.28.58.58,0,0,1-.08-.3.63.63,0,0,1,.28-.51,1,1,0,0,1,.58-.18,1.29,1.29,0,0,1,.71.26.26.26,0,0,1,.07.35.25.25,0,0,1-.35.07.8.8,0,0,0-.43-.18.44.44,0,0,0-.28.09c-.07,0-.08.08-.08.1s0,0,0,0l0,.05a1.1,1.1,0,0,0,.35.11h0a1.89,1.89,0,0,1,.44.13.77.77,0,0,1,.34.28.59.59,0,0,1,.09.31.69.69,0,0,1-.3.55,1.05,1.05,0,0,1-.61.19,1.41,1.41,0,0,1-.84-.33A.25.25,0,0,1,213,336.13Z" style="fill:#c7c7c7"></path><path d="M206.67,334.82a1.16,1.16,0,0,1,.34.83,1.2,1.2,0,0,1-.34.84,1.19,1.19,0,0,1-.84.34,1.16,1.16,0,0,1-.83-.34.27.27,0,0,1,.38-.38.63.63,0,0,0,.45.18.67.67,0,0,0,.46-.18.68.68,0,0,0,.19-.46.65.65,0,0,0-.65-.64.25.25,0,0,1-.19-.09h0a.27.27,0,0,1,0-.38l.49-.5h-.77a.26.26,0,0,1-.27-.27.27.27,0,0,1,.27-.26h1.4a.27.27,0,0,1,.27.26.28.28,0,0,1,0,.13l0,.07-.6.62A1,1,0,0,1,206.67,334.82Z" style="fill:#c7c7c7"></path><path d="M217.9,334.35a.85.85,0,1,0,.85-.84A.85.85,0,0,0,217.9,334.35Z" style="fill:#c7c7c7"></path><path d="M220.21,336.68v.3h-2.92v-.3a1.46,1.46,0,0,1,2.92,0Z" style="fill:#c7c7c7"></path><path d="M220,333.89a.84.84,0,0,0,.84.84.85.85,0,1,0-.84-.84Z" style="fill:#c7c7c7"></path><path d="M222.26,336.21v.3h-2.92v-.3a1.46,1.46,0,0,1,2.92,0Z" style="fill:#c7c7c7"></path><polygon points="181.74 344.2 198.72 344.01 215.7 343.9 249.65 343.81 283.61 343.9 300.58 344.01 317.56 344.2 300.58 344.39 283.61 344.5 249.65 344.59 215.7 344.5 198.72 344.39 181.74 344.2" style="fill:#c7c7c7"></polygon><path d="M181.74,347.8c8.24-.16,16.47-.24,24.71-.3l24.71-.09,24.7.09,12.36.11,12.35.19-12.35.19-12.36.11-24.7.09-24.71-.09C198.21,348,190,348,181.74,347.8Z" style="fill:#c7c7c7"></path><path d="M181.74,351.4c5.5-.16,11-.24,16.5-.3s11-.06,16.5-.09,11,0,16.5.09l8.24.11c2.75.06,5.5.1,8.25.19-2.75.09-5.5.13-8.25.19l-8.24.11c-5.5.06-11,.06-16.5.09s-11,0-16.5-.09S187.24,351.56,181.74,351.4Z" style="fill:#c7c7c7"></path><path d="M185.79,336.31a8.19,8.19,0,0,0,2.45,1,8.52,8.52,0,0,0,4-16.55,8.52,8.52,0,0,0-6.5,15.53Z" style="fill:#ebebeb"></path><path d="M187.67,328.09a2.6,2.6,0,1,0,2.6-2.6A2.59,2.59,0,0,0,187.67,328.09Z" style="fill:#fff"></path><path d="M185.79,335.24v1.07a8.19,8.19,0,0,0,2.45,1,8.44,8.44,0,0,0,6.51-1v-1.06a4.48,4.48,0,1,0-9,0Z" style="fill:#fff"></path><path d="M222,326.2c10.15,0,17.22-.61,17.22-.61s-7.07-.54-17.22-.54-17.22.54-17.22.54S211.87,326.2,222,326.2Z" style="fill:#455a64"></path><path d="M218,329.12c7.79,0,13.23-.53,13.23-.53s-5.44-.48-13.23-.48-13.23.48-13.23.48S210.24,329.12,218,329.12Z" style="fill:#dbdbdb"></path><rect x="191.16" y="297.11" width="126.24" height="6.08" style="fill:#ebebeb"></rect><path d="M186.74,303.1a3.44,3.44,0,0,1-1,.41,3.41,3.41,0,1,1,1-.41Z" style="fill:#dbdbdb"></path><path d="M186,299.81a1,1,0,1,1-2.07,0,1,1,0,0,1,2.07,0Z" style="fill:#fff"></path><path d="M186.74,302.67v.43a3.44,3.44,0,0,1-1,.41,3.4,3.4,0,0,1-2.6-.42v-.42a1.79,1.79,0,0,1,3.58,0Z" style="fill:#fff"></path><path d="M196,300.74h-1.1l-.22.57a.08.08,0,0,1-.08.05h0a.09.09,0,0,1-.05-.11l.84-2.25a.1.1,0,0,1,.08-.05.09.09,0,0,1,.09.05l.84,2.25a.1.1,0,0,1-.05.11h0a.1.1,0,0,1-.08-.05Zm-1-.17h1l-.49-1.3Z" style="fill:#a6a6a6"></path><path d="M198.13,301a.8.8,0,0,1-.65.33.85.85,0,0,1,0-1.69.8.8,0,0,1,.65.33v-1a.09.09,0,0,1,.09-.08.09.09,0,0,1,.08.08v2.26a.09.09,0,0,1-.08.08.09.09,0,0,1-.09-.08Zm0-.48v-.06a.65.65,0,1,0-.65.7A.65.65,0,0,0,198.13,300.55Z" style="fill:#a6a6a6"></path><path d="M200.41,301a.8.8,0,0,1-.65.33.85.85,0,0,1,0-1.69.8.8,0,0,1,.65.33v-1a.09.09,0,0,1,.09-.08.09.09,0,0,1,.08.08v2.26a.09.09,0,0,1-.08.08.09.09,0,0,1-.09-.08Zm0-.48v-.06a.66.66,0,0,0-.65-.65.68.68,0,0,0,0,1.35A.65.65,0,0,0,200.41,300.55Z" style="fill:#a6a6a6"></path><path d="M203.8,299.75v1.53a.09.09,0,0,1-.08.08.09.09,0,0,1-.09-.08V301a.77.77,0,0,1-.63.33.85.85,0,0,1,0-1.69.77.77,0,0,1,.63.33v-.25a.08.08,0,0,1,.09-.08A.08.08,0,0,1,203.8,299.75Zm-.17.76a.65.65,0,0,0-.63-.68.69.69,0,1,0,.63.68Z" style="fill:#a6a6a6"></path><path d="M205.44,300.51a.85.85,0,0,1,.87-.84.92.92,0,0,1,.54.18.09.09,0,1,1-.11.13.72.72,0,0,0-.43-.15.69.69,0,1,0,0,1.37.72.72,0,0,0,.43-.15.09.09,0,0,1,.12,0,.08.08,0,0,1,0,.12.87.87,0,0,1-.53.18A.85.85,0,0,1,205.44,300.51Z" style="fill:#a6a6a6"></path><path d="M208.2,299.67a.82.82,0,0,1,.8.84.8.8,0,1,1-.8-.84Zm0,1.53a.69.69,0,1,0-.63-.69A.67.67,0,0,0,208.2,301.2Z" style="fill:#a6a6a6"></path><path d="M212.07,300.36a.54.54,0,0,0-.53-.53.52.52,0,0,0-.52.53v.92h0s0,0,0,0h-.12v-.92a.52.52,0,0,0-.52-.53.53.53,0,0,0-.53.53v.92a.09.09,0,0,1,0,.07h-.06a.09.09,0,0,1-.07-.06v-1.55a.09.09,0,0,1,.08-.08.08.08,0,0,1,.08.08v.16a.69.69,0,0,1,1.13.12.71.71,0,0,1,.61-.36.69.69,0,0,1,.69.69v.92a.09.09,0,0,1-.09.08.08.08,0,0,1-.07-.08Z" style="fill:#a6a6a6"></path><path d="M215.36,300.36a.54.54,0,0,0-.53-.53.52.52,0,0,0-.52.53v.92h0s0,0,0,0h-.12v-.92a.52.52,0,0,0-.52-.53.53.53,0,0,0-.53.53v.92a.09.09,0,0,1,0,.07H213a.09.09,0,0,1-.07-.06v-1.55a.09.09,0,0,1,.08-.08.08.08,0,0,1,.08.08v.16a.69.69,0,0,1,1.13.12.71.71,0,0,1,.61-.36.69.69,0,0,1,.69.69v.92a.09.09,0,0,1-.09.08.08.08,0,0,1-.07-.08Z" style="fill:#a6a6a6"></path><path d="M216.1,300.52a.82.82,0,0,1,1.64-.06h0a.09.09,0,0,1-.08.08h-1.39a.66.66,0,0,0,.65.65.63.63,0,0,0,.55-.31.08.08,0,0,1,.11,0,.1.1,0,0,1,0,.12.82.82,0,0,1-.69.38A.83.83,0,0,1,216.1,300.52Zm.18-.14h1.28a.67.67,0,0,0-.64-.55A.65.65,0,0,0,216.28,300.38Z" style="fill:#a6a6a6"></path><path d="M219.54,300.36a.52.52,0,0,0-.52-.52.53.53,0,0,0-.53.52v.92h0a.05.05,0,0,1,0,0,.06.06,0,0,1-.06,0h0l-.06,0h0v-1.55a.08.08,0,0,1,.16,0v.17a.67.67,0,0,1,.53-.25.68.68,0,0,1,.68.69v.92a.07.07,0,0,1-.08.08.08.08,0,0,1-.08-.08Z" style="fill:#a6a6a6"></path><path d="M221,299.75a.09.09,0,0,1-.08.08h-.22v1.24a.13.13,0,0,0,.12.12.11.11,0,0,1,.09.09.1.1,0,0,1-.09.08.28.28,0,0,1-.29-.29v-1.24h-.22c-.08,0-.08,0-.08-.08s0-.08.08-.08h.22V299a.09.09,0,0,1,.08-.08.1.1,0,0,1,.09.08v.63H221A.09.09,0,0,1,221,299.75Z" style="fill:#a6a6a6"></path><path d="M222,301a.17.17,0,0,1,0,.34.17.17,0,1,1,0-.34Z" style="fill:#a6a6a6"></path><path d="M222.76,301a.17.17,0,1,1,0,.34.17.17,0,1,1,0-.34Z" style="fill:#a6a6a6"></path><path d="M223.56,301a.17.17,0,0,1,0,.34.17.17,0,0,1,0-.34Z" style="fill:#a6a6a6"></path><path d="M181.64,278.66a3.29,3.29,0,1,1,4,2.42A3.29,3.29,0,0,1,181.64,278.66Z" style="fill:#455a64"></path><g id="freepik--xsrjp0--inject-46"><path d="M184.41,279.25c-.08-.05-.15-.13-.27-.11s0,0,0-.06c0-.43,0-.85,0-1.27,0,0,0-.06,0-.08.32-.16.46-.48.66-.76a1.29,1.29,0,0,0,.23-1c0-.09,0-.13.12-.15a.2.2,0,0,1,.24.07,1.85,1.85,0,0,1,.19.56,2,2,0,0,1-.06.48c0,.11,0,.23-.06.35s.06,0,.09,0h1.08c.15,0,.22.05.24.15a.29.29,0,0,1-.15.31s-.08,0-.08,0,.05,0,.07.06.11.27,0,.38-.11,0-.11.06.07,0,.09.07a.24.24,0,0,1-.1.38l-.06,0s0,0,0,.05a.22.22,0,0,1,0,.38l-.05,0a.33.33,0,0,1-.19,0h-1.69A.21.21,0,0,1,184.41,279.25Z" style="fill:#fff;fill-rule:evenodd"></path><path d="M182.81,278.51v-.81c0-.06,0-.08.07-.08h1c.06,0,.07,0,.07.07,0,.55,0,1.09,0,1.63,0,.07,0,.09-.09.09h-1c-.08,0-.09,0-.09-.1Z" style="fill:#fff;fill-rule:evenodd"></path></g><rect x="181.7" y="285.84" width="135.71" height="0.22" style="fill:#ebebeb"></rect><rect x="181.7" y="294.28" width="135.71" height="0.22" style="fill:#ebebeb"></rect><rect x="173.23" y="311.38" width="152.65" height="0.25" style="fill:#ebebeb"></rect><path d="M215.2,291.55h0a.09.09,0,0,1-.09-.09v-2.58a.09.09,0,0,1,.09-.09.09.09,0,0,1,.1.09v2.48h1.33a.09.09,0,0,1,.09.1.09.09,0,0,1-.09.09Z" style="fill:#a6a6a6"></path><path d="M217.29,289.08a.1.1,0,0,1,.09-.1.1.1,0,0,1,.1.1v.09a.09.09,0,0,1-.1.1.09.09,0,0,1-.09-.1Zm0,.63a.09.09,0,0,1,.09-.09.09.09,0,0,1,.1.09v1.75a.09.09,0,0,1-.1.09.09.09,0,0,1-.09-.09Z" style="fill:#a6a6a6"></path><path d="M218.39,288.88a.1.1,0,0,1,.2,0v1.86l1.14-1.14a.1.1,0,1,1,.14.14l-.75.74.75.92a.09.09,0,0,1,0,.13.07.07,0,0,1-.06,0,.08.08,0,0,1-.08,0l-.74-.9-.39.4v.44a.1.1,0,0,1-.2,0Z" style="fill:#a6a6a6"></path><path d="M220.37,290.59a1,1,0,0,1,.94-1,.94.94,0,0,1,.93.9h0a.08.08,0,0,1-.09.09h-1.59a.76.76,0,0,0,.75.74.73.73,0,0,0,.63-.35.08.08,0,0,1,.12,0,.1.1,0,0,1,0,.14.91.91,0,0,1-.78.43A1,1,0,0,1,220.37,290.59Zm.2-.16H222a.74.74,0,0,0-.73-.62A.76.76,0,0,0,220.57,290.43Z" style="fill:#a6a6a6"></path><g id="freepik--xsrjp0--inject-46"><path d="M206.76,292a.38.38,0,0,1-.23-.07l-.06-.05a.37.37,0,0,0-.19-.08.13.13,0,0,1-.12,0,.18.18,0,0,1,0-.14v-1.56a.19.19,0,0,1,.1-.19,1.51,1.51,0,0,0,.6-.65L207,289a1.4,1.4,0,0,0,.26-1.09.27.27,0,0,1,.23-.32.37.37,0,0,1,.42.15,2.26,2.26,0,0,1,.24.72,1.16,1.16,0,0,1,0,.42l0,.19c0,.1,0,.2-.05.3h1.29c.09,0,.35,0,.41.26a.44.44,0,0,1-.2.47.34.34,0,0,1,.11.24.46.46,0,0,1-.21.37h0a.33.33,0,0,1,.1.3.45.45,0,0,1-.22.32.35.35,0,0,1,.09.23.4.4,0,0,1-.19.33l-.05,0a.48.48,0,0,1-.29.07h-2.09Zm-.42-.42a.69.69,0,0,1,.26.12l.06,0v0l.11,0h2.06c.08,0,.13,0,.16,0l.06,0a.19.19,0,0,0,.1-.15.17.17,0,0,0-.09-.13.16.16,0,0,1-.07-.13.14.14,0,0,1,.07-.12l.07,0a.23.23,0,0,0,.15-.17.15.15,0,0,0,0-.11c-.06,0-.15-.07-.15-.17a.18.18,0,0,1,.15-.17.23.23,0,0,0,.14-.18s0-.08-.06-.1-.14-.11-.14-.17a.17.17,0,0,1,.16-.15.23.23,0,0,0,.13-.25s0-.09-.19-.09H208a.23.23,0,0,1-.18,0l-.06,0,0-.2c0-.1,0-.2.05-.29l0-.2a1.14,1.14,0,0,0,0-.36,2,2,0,0,0-.22-.64s-.09-.05-.17,0-.06,0-.06.07a1.63,1.63,0,0,1-.3,1.25c-.06.08-.11.16-.16.24a1.84,1.84,0,0,1-.67.72Zm0,.05-.11,0h.12Z" style="fill:#a6a6a6"></path><path d="M204.75,292.15a.2.2,0,0,1-.16-.06.21.21,0,0,1-.06-.17v-2a.18.18,0,0,1,.05-.16.21.21,0,0,1,.15,0h1.2a.18.18,0,0,1,.15,0,.22.22,0,0,1,0,.16c0,.66,0,1.32,0,2a.28.28,0,0,1,0,.17.23.23,0,0,1-.17.05Zm0-1.22v.26c0,.24,0,.48,0,.73h1.17c0-.67,0-1.32,0-2h-1.16v1Z" style="fill:#a6a6a6"></path></g><path d="M283.35,288.75a1.49,1.49,0,0,1,.89.3.09.09,0,0,1,0,.14.09.09,0,0,1-.13,0,1.27,1.27,0,0,0-.78-.27,1.21,1.21,0,1,0,.77,2.15.1.1,0,0,1,.14,0,.08.08,0,0,1,0,.13,1.42,1.42,0,1,1-.89-2.5Z" style="fill:#a6a6a6"></path><path d="M285.83,289.62a1,1,0,1,1-.92,1A.94.94,0,0,1,285.83,289.62Zm0,1.74a.75.75,0,0,0,.72-.77.73.73,0,1,0-1.45,0A.75.75,0,0,0,285.83,291.36Z" style="fill:#a6a6a6"></path><path d="M290.24,290.41a.6.6,0,1,0-1.19,0v1h0l0,.05h-.15v-1a.6.6,0,1,0-1.19,0v1a.12.12,0,0,1,0,.08h-.07s-.06,0-.08-.07v-1.77a.1.1,0,0,1,.09-.09.09.09,0,0,1,.1.09v.19a.77.77,0,0,1,.6-.28.8.8,0,0,1,.69.41.81.81,0,0,1,.69-.41.79.79,0,0,1,.79.79v1a.09.09,0,0,1-.1.09.09.09,0,0,1-.09-.09Z" style="fill:#a6a6a6"></path><path d="M294,290.41a.61.61,0,0,0-.61-.6.6.6,0,0,0-.59.6v1h0a.07.07,0,0,1,0,.05h-.15v-1a.59.59,0,0,0-.59-.6.6.6,0,0,0-.6.6v1a.12.12,0,0,1,0,.08h-.07s-.06,0-.08-.07v-1.77a.1.1,0,0,1,.1-.09.09.09,0,0,1,.09.09v.19a.78.78,0,0,1,.6-.28.8.8,0,0,1,.69.41.81.81,0,0,1,.69-.41.79.79,0,0,1,.79.79v1a.09.09,0,0,1-.18,0Z" style="fill:#a6a6a6"></path><path d="M294.86,290.59a1,1,0,0,1,.94-1,.94.94,0,0,1,.93.9h0a.08.08,0,0,1-.09.09h-1.59a.76.76,0,0,0,.75.74.72.72,0,0,0,.62-.35.1.1,0,0,1,.13,0,.11.11,0,0,1,0,.14.92.92,0,0,1-.78.43A1,1,0,0,1,294.86,290.59Zm.2-.16h1.46a.74.74,0,0,0-.72-.62A.75.75,0,0,0,295.06,290.43Z" style="fill:#a6a6a6"></path><path d="M298.79,290.41a.6.6,0,0,0-.6-.6.61.61,0,0,0-.6.6v1h0a.08.08,0,0,1,0,0,.09.09,0,0,1-.07,0h0a.08.08,0,0,1-.07-.05h0v-1.76a.09.09,0,0,1,.1-.1.09.09,0,0,1,.09.1v.18a.78.78,0,0,1,.6-.28.79.79,0,0,1,.79.79v1a.1.1,0,0,1-.1.09.09.09,0,0,1-.09-.09Z" style="fill:#a6a6a6"></path><path d="M300.5,289.71a.1.1,0,0,1-.09.1h-.25v1.41a.16.16,0,0,0,.14.14.11.11,0,0,1,.1.1.1.1,0,0,1-.1.09.33.33,0,0,1-.34-.33v-1.41h-.24c-.09,0-.09-.05-.09-.1s0-.09.09-.09H300v-.72a.1.1,0,0,1,.2,0v.72h.25A.09.09,0,0,1,300.5,289.71Z" style="fill:#a6a6a6"></path><path d="M275.26,291.79c-1.25,0-2.27-.77-2.27-1.71s1-1.7,2.27-1.7,2.27.76,2.27,1.7a1.39,1.39,0,0,1-.2.71l.36.8-.92-.24A2.71,2.71,0,0,1,275.26,291.79Zm0-3.19c-1.13,0-2,.66-2,1.48s.91,1.48,2,1.48a2.44,2.44,0,0,0,1.43-.42l0,0,.57.15-.22-.49,0,0a1.18,1.18,0,0,0,.2-.64C277.31,289.26,276.39,288.6,275.26,288.6Z" style="fill:#a6a6a6"></path><path d="M314.13,247a.42.42,0,0,1,.42.42.41.41,0,0,1-.42.41.41.41,0,0,1-.41-.41A.41.41,0,0,1,314.13,247Z"></path><path d="M315.42,247a.42.42,0,0,1,.42.42.41.41,0,0,1-.42.41.41.41,0,0,1-.41-.41A.41.41,0,0,1,315.42,247Z"></path><path d="M316.71,247a.43.43,0,0,1,.43.42.42.42,0,0,1-.43.41.41.41,0,0,1-.41-.41A.42.42,0,0,1,316.71,247Z"></path><path d="M208.62,254.68a.26.26,0,0,1-.51.06s0,0,0-.06V251.9a.25.25,0,0,1,.26-.26.26.26,0,0,1,.26.26v.82a1.07,1.07,0,0,1,.5-.14,1,1,0,0,1,1,1v1.07a.26.26,0,0,1-.26.26.26.26,0,0,1-.26-.26v-1.07a.52.52,0,0,0-.51-.51.52.52,0,0,0-.5.51Z" style="fill:#c7c7c7"></path><path d="M212.44,252.83a.25.25,0,0,1-.25.25.45.45,0,0,0-.28.09.8.8,0,0,0-.22.23,1.45,1.45,0,0,0-.19.39v.9a.26.26,0,0,1-.26.25.25.25,0,0,1-.25-.25v-1.86a.24.24,0,0,1,.25-.24.25.25,0,0,1,.26.24v0a.43.43,0,0,1,.1-.09,1,1,0,0,1,.59-.18A.24.24,0,0,1,212.44,252.83Z" style="fill:#c7c7c7"></path><path d="M213,254.26a.24.24,0,0,1,.35,0,.83.83,0,0,0,.52.2.61.61,0,0,0,.32-.09.19.19,0,0,0,.08-.14s0,0,0,0a.11.11,0,0,0-.06-.06,1,1,0,0,0-.38-.13h0a1.64,1.64,0,0,1-.41-.13.78.78,0,0,1-.33-.27.58.58,0,0,1-.08-.3.63.63,0,0,1,.28-.51,1,1,0,0,1,.58-.18,1.29,1.29,0,0,1,.71.26.26.26,0,0,1,.07.35.25.25,0,0,1-.35.07.8.8,0,0,0-.43-.18.44.44,0,0,0-.28.09c-.07,0-.08.08-.08.1s0,0,0,0,0,0,0,.05a1.1,1.1,0,0,0,.35.11h0a1.89,1.89,0,0,1,.44.13.77.77,0,0,1,.34.28.59.59,0,0,1,.09.31.69.69,0,0,1-.3.55,1.05,1.05,0,0,1-.61.19,1.41,1.41,0,0,1-.84-.33A.25.25,0,0,1,213,254.26Z" style="fill:#c7c7c7"></path><path d="M207,254.7a.26.26,0,0,1-.26.26h-1.69a.25.25,0,0,1-.19-.09.27.27,0,0,1,0-.37l1.41-1.27a.61.61,0,0,0,.2-.45.67.67,0,0,0-.16-.42.61.61,0,0,0-.45-.19.66.66,0,0,0-.42.15l-.14.13a.26.26,0,0,1-.37,0,.25.25,0,0,1,0-.36l.14-.14a1.12,1.12,0,0,1,.77-.29,1.16,1.16,0,0,1,.84.37,1.14,1.14,0,0,1,.29.77,1.16,1.16,0,0,1-.37.84l-.9.81h1A.26.26,0,0,1,207,254.7Z" style="fill:#c7c7c7"></path><path d="M217.9,252.48a.85.85,0,1,0,1.69,0,.85.85,0,0,0-1.69,0Z" style="fill:#c7c7c7"></path><path d="M220.21,254.81v.3h-2.92v-.3a1.46,1.46,0,0,1,2.92,0Z" style="fill:#c7c7c7"></path><path d="M220,252a.84.84,0,0,0,.84.84A.85.85,0,1,0,220,252Z" style="fill:#c7c7c7"></path><path d="M222.26,254.34v.3h-2.92v-.3a1.46,1.46,0,0,1,2.92,0Z" style="fill:#c7c7c7"></path><polygon points="181.74 262.33 198.72 262.14 215.7 262.03 249.65 261.94 283.61 262.03 300.58 262.14 317.56 262.33 300.58 262.52 283.61 262.63 249.65 262.72 215.7 262.63 198.72 262.52 181.74 262.33" style="fill:#c7c7c7"></polygon><path d="M181.74,265.93c8.24-.16,16.47-.24,24.71-.3l24.71-.09,24.7.09,12.36.11,12.35.19-12.35.19-12.36.11-24.7.09-24.71-.09C198.21,266.17,190,266.09,181.74,265.93Z" style="fill:#c7c7c7"></path><path d="M181.74,269.53c5.5-.16,11-.24,16.5-.3s11-.06,16.5-.09,11,0,16.5.09l8.24.11c2.75.06,5.5.1,8.25.19-2.75.09-5.5.13-8.25.19l-8.24.11c-5.5.06-11,.06-16.5.09s-11,0-16.5-.09S187.24,269.69,181.74,269.53Z" style="fill:#c7c7c7"></path><path d="M185.79,254.44a8.19,8.19,0,0,0,2.45,1,8.52,8.52,0,0,0,4-16.55,8.52,8.52,0,0,0-6.5,15.53Z" style="fill:#ebebeb"></path><path d="M187.67,246.22a2.6,2.6,0,1,0,2.6-2.6A2.59,2.59,0,0,0,187.67,246.22Z" style="fill:#fff"></path><path d="M185.79,253.37v1.07a8.19,8.19,0,0,0,2.45,1,8.44,8.44,0,0,0,6.51-1v-1.06a4.48,4.48,0,1,0-9,0Z" style="fill:#fff"></path><path d="M222,244.78c10.15,0,17.22-.61,17.22-.61s-7.07-.55-17.22-.55-17.22.55-17.22.55S211.87,244.78,222,244.78Z" style="fill:#455a64"></path><path d="M218,247.69c7.79,0,13.23-.52,13.23-.52s-5.44-.48-13.23-.48-13.23.48-13.23.48S210.24,247.69,218,247.69Z" style="fill:#dbdbdb"></path><rect x="161.52" y="227.88" width="176.94" height="0.29" style="fill:#ebebeb"></rect><polygon points="170.25 134.97 170.25 202.14 170.25 220.12 329.73 220.12 329.73 202.14 329.73 134.97 170.25 134.97" style="fill:#dbdbdb"></polygon><path d="M310.37,362.68a2.15,2.15,0,0,0,.66.28,2.32,2.32,0,1,0-.66-.28Z" style="fill:#ebebeb"></path><path d="M310.87,360.47a.7.7,0,1,0,1.4,0,.7.7,0,0,0-1.4,0Z" style="fill:#fff"></path><path d="M310.37,362.39v.29a2.15,2.15,0,0,0,.66.28,2.3,2.3,0,0,0,1.75-.28v-.29a1.21,1.21,0,0,0-2.41,0Z" style="fill:#fff"></path><path d="M291.13,279.57l1.18-1.06a.69.69,0,0,0,.22-.49.66.66,0,0,0-.65-.65.7.7,0,0,0-.45.17l-.12.11a.08.08,0,0,1-.12,0,.09.09,0,0,1,0-.13l.13-.11a.84.84,0,0,1,.56-.22.83.83,0,0,1,.82.83.86.86,0,0,1-.27.62l-1,.91h1.2a.09.09,0,0,1,0,.18h-1.43a.09.09,0,0,1-.07,0A.09.09,0,0,1,291.13,279.57Z" style="fill:#c7c7c7"></path><path d="M294.42,279.25a.08.08,0,0,1,.11,0,1.36,1.36,0,0,0,.83.33,1,1,0,0,0,.56-.17.46.46,0,0,0,.22-.37.4.4,0,0,0-.21-.35,1.75,1.75,0,0,0-.59-.21h0a1.57,1.57,0,0,1-.6-.21.51.51,0,0,1-.26-.44.59.59,0,0,1,.26-.48,1.1,1.1,0,0,1,.61-.18,1.41,1.41,0,0,1,.79.29.09.09,0,0,1,0,.11.08.08,0,0,1-.11,0,1.21,1.21,0,0,0-.7-.27.88.88,0,0,0-.51.15.43.43,0,0,0-.2.35.34.34,0,0,0,.19.3,1.45,1.45,0,0,0,.54.2h0a1.67,1.67,0,0,1,.64.23.56.56,0,0,1,.28.48.63.63,0,0,1-.29.5,1,1,0,0,1-.65.2,1.58,1.58,0,0,1-.93-.36A.08.08,0,0,1,294.42,279.25Z" style="fill:#c7c7c7"></path><path d="M298.21,278.65a.56.56,0,0,0-1.12,0v1h0s0,0,0,0h0a.1.1,0,0,1-.06.05h0a.09.09,0,0,1-.07,0l0,0v-2.39a.09.09,0,0,1,.18,0v.94a.72.72,0,0,1,.56-.27.71.71,0,0,1,.74.7v1a.09.09,0,0,1-.18,0Z" style="fill:#c7c7c7"></path><path d="M300.76,278v1.6a.09.09,0,0,1-.08.09.09.09,0,0,1-.09-.09v-.26a.82.82,0,0,1-.67.35.89.89,0,0,1,0-1.78.82.82,0,0,1,.67.35V278a.09.09,0,0,1,.09-.09A.09.09,0,0,1,300.76,278Zm-.17.8a.67.67,0,1,0-.67.72A.69.69,0,0,0,300.59,278.84Z" style="fill:#c7c7c7"></path><path d="M301.52,278.05a.08.08,0,0,1,.09-.09.08.08,0,0,1,.08.09v.39l0-.05a.85.85,0,0,1,.71-.43.08.08,0,0,1,.09.09.09.09,0,0,1-.09.08.66.66,0,0,0-.52.29,1.75,1.75,0,0,0-.21.41v.81a.09.09,0,0,1-.08.09.09.09,0,0,1-.09-.09Z" style="fill:#c7c7c7"></path><path d="M302.8,278.84a.86.86,0,0,1,1.72-.06h0a.08.08,0,0,1-.09.08H303a.7.7,0,0,0,.68.69.68.68,0,0,0,.58-.33.08.08,0,0,1,.11,0,.1.1,0,0,1,0,.13.85.85,0,0,1-.72.4A.88.88,0,0,1,302.8,278.84Zm.19-.14h1.34a.68.68,0,0,0-1.34,0Z" style="fill:#c7c7c7"></path><path d="M305,279.36a.08.08,0,0,1,.12,0,1,1,0,0,0,.55.21.57.57,0,0,0,.34-.11.25.25,0,0,0,0-.44.82.82,0,0,0-.37-.13h0a1,1,0,0,1-.4-.14.36.36,0,0,1-.2-.32.44.44,0,0,1,.2-.35.76.76,0,0,1,.43-.12.94.94,0,0,1,.53.2.1.1,0,0,1,0,.12.08.08,0,0,1-.12,0,.82.82,0,0,0-.44-.17.57.57,0,0,0-.34.1.27.27,0,0,0-.11.2.24.24,0,0,0,.1.18.89.89,0,0,0,.37.12h0a1.28,1.28,0,0,1,.43.15.42.42,0,0,1,.2.36.45.45,0,0,1-.2.36.72.72,0,0,1-.44.14,1.11,1.11,0,0,1-.66-.25A.09.09,0,0,1,305,279.36Z" style="fill:#c7c7c7"></path><polygon points="315.36 278.32 317.47 278.32 316.41 279.61 315.36 278.32" style="fill:#c7c7c7"></polygon><path d="M310.37,280.8a2.15,2.15,0,0,0,.66.28,2.26,2.26,0,0,0,1.75-.28,2.3,2.3,0,1,0-2.41,0Z" style="fill:#ebebeb"></path><path d="M310.87,278.59a.7.7,0,1,0,1.4,0,.7.7,0,0,0-1.4,0Z" style="fill:#fff"></path><path d="M310.37,280.52v.28a2.15,2.15,0,0,0,.66.28,2.26,2.26,0,0,0,1.75-.28v-.28a1.21,1.21,0,1,0-2.41,0Z" style="fill:#fff"></path><path d="M192.46,277.46l-.36.21h0a.12.12,0,0,1-.08,0,.08.08,0,0,1,0-.12l.49-.3a.1.1,0,0,1,.12,0,.17.17,0,0,1,0,.07v2.33a.09.09,0,1,1-.18,0Z" style="fill:#263238"></path><path d="M193.54,277.75a1.07,1.07,0,0,1,.89-.55.09.09,0,0,1,.09.09.09.09,0,0,1-.08.09.85.85,0,0,0-.74.46,1.73,1.73,0,0,0-.19.51.84.84,0,1,1,.63,1.39.85.85,0,0,1-.84-.81v-.17A2.09,2.09,0,0,1,193.54,277.75Zm-.06,1.16a.43.43,0,0,0,0,0v0a.66.66,0,0,0,.65.57.66.66,0,1,0-.66-.66Z" style="fill:#263238"></path></g><g id="freepik--Character--inject-46"><path d="M334.61,438.67c-2.1.81-62.9,1.91-65.28.55-.26-.15-.18-2.83-1.08-9.77,0-.33-1.43-1.62-3.59-3.44-8.14-6.81-27.24-21.18-27.24-21.18l30.34-26.36,29.4,28.9,7.65,7.52s24.84,13.41,27.3,15.18S336.7,437.87,334.61,438.67Z" style="fill:#ad6359"></path><path d="M334.61,438.67c-2.1.81-62.9,1.91-65.28.56-.25-.16-.18-2.84-1.08-9.78,0-.33-1.43-1.62-3.6-3.44-2.82-2.37-4.17-3.45-8.37-6.73l38.57-14.18,2.31,2.27,7.65,7.52s24.84,13.41,27.3,15.18S336.7,437.87,334.61,438.67Z" style="fill:#ebebeb"></path><path d="M338.8,439.51c-2.12.74-66.9,1.45-69.23,0-.55-.34-1.05-4.1-1.45-9.25-.05-.65-6.61-5.89-7.51-6.87L300.3,410l5,4.72s29.21,13.59,31.6,15.44S340.91,438.78,338.8,439.51Z" style="fill:#E8C066"></path><path d="M337.9,437.1c-10.18-.14-55.33.3-65.4.94-.08,0-.08.06,0,.06,10.09.35,55.23-.41,65.4-.84C338.11,437.25,338.11,437.1,337.9,437.1Z" style="fill:#263238"></path><path d="M308.56,415.18c-4-.7-8.91,0-11.93,2.86-.12.11,0,.28.17.23a56.18,56.18,0,0,1,11.75-2.58A.26.26,0,0,0,308.56,415.18Z" style="fill:#263238"></path><path d="M311.47,416.89c-4-.7-8.91,0-11.93,2.86-.12.11,0,.27.17.23a56.84,56.84,0,0,1,11.75-2.59A.25.25,0,0,0,311.47,416.89Z" style="fill:#263238"></path><path d="M314.38,418.6c-4-.7-8.91,0-11.93,2.86-.12.11,0,.27.17.23a56.84,56.84,0,0,1,11.75-2.59A.25.25,0,0,0,314.38,418.6Z" style="fill:#263238"></path><path d="M317.29,420.3c-4-.7-8.91,0-11.93,2.86-.12.12,0,.28.17.24a56.2,56.2,0,0,1,11.75-2.59A.26.26,0,0,0,317.29,420.3Z" style="fill:#263238"></path><path d="M315.84,405.83c-1.6-2.14-4.51-1.14-6.17.29a21.36,21.36,0,0,0-6.06,9.24.12.12,0,0,0,.1.15.49.49,0,0,0,.63.49c3.29-1.26,7-2.21,9.77-4.44C315.75,410.25,317.35,407.87,315.84,405.83Zm-6.9,7.23c-1.6.66-3.23,1.24-4.81,2a64.3,64.3,0,0,1,3.66-5.32,24.18,24.18,0,0,1,2.09-2.32c1.18-1.1,5.87-3.46,5.22.94C314.74,410.75,310.85,412.28,308.94,413.06Z" style="fill:#263238"></path><path d="M293.42,414.44c3.32,1.36,7.11,1.25,10.63,1.55a.5.5,0,0,0,.47-.65.11.11,0,0,0,.05-.17,21.32,21.32,0,0,0-8.39-7.19c-2-.91-5.07-1.07-6,1.44S291.49,413.64,293.42,414.44Zm-1.84-2.84c-1.85-4,3.31-3.08,4.75-2.35a23.89,23.89,0,0,1,2.65,1.64c1.78,1.24,3.36,2.7,5,4.1-1.72-.25-3.44-.36-5.17-.55C296.76,414.22,292.6,413.83,291.58,411.6Z" style="fill:#263238"></path><path d="M297.58,405.76l-37.5,19.43S221,389.82,217.42,389.56s-56.14,35.41-82.6,35.52c-27.41.11-28.8-28.6-28.8-28.6l40-9.18c28.83-14.21,58.85-39.72,78.48-37.34C245.81,352.54,297.58,405.76,297.58,405.76Z" style="fill:#455a64"></path><path d="M288.42,400.81c-6.33,3.13-4.56,2.15-10.85,5.34-3.09,1.57-18.59,9.39-21.23,11.33,0,0,0,.14.07.12,3.1-1,18.43-9.2,21.48-10.82,6.24-3.31,4.42-2.42,10.62-5.8A.1.1,0,1,0,288.42,400.81Z" style="fill:#263238"></path><path d="M253.43,416.23c-7.33-6.46-31.35-27.51-32.33-28.29a13.41,13.41,0,0,0-2.5-1.88,2.65,2.65,0,0,0-2.31.19c-1.11.52-2.2,1.09-3.3,1.62l-6.5,3.18c-8.41,4.1-16.76,8.31-25.23,12.27-8.14,3.82-13.95,7.41-22.46,10.34a127.26,127.26,0,0,1-26.09,6.22c-1.09.13-2.19.25-3.29.35-.08,0-.08.13,0,.13a105,105,0,0,0,25.68-4.78c8.42-2.59,14.14-5.95,22.14-9.63,8.29-3.82,16.47-7.9,24.64-12,4.32-2.14,8.62-4.31,13-6.43,1-.48,2.38-1.52,3.5-1a6,6,0,0,1,1.3.95l1.43,1.2c1.86,1.54,31.31,26.91,32.27,27.64C253.41,416.39,253.5,416.3,253.43,416.23Z" style="fill:#263238"></path><path d="M105.94,396.48s-4.48,25.93,8.49,36.11,108,9,122.36,4.3,14.87-27.91-.89-33.3c-15-5.13-78.74-7.62-80.31-8.25-.4-.15,5.65-3.78,5.62-4l-14.5-4.43Z" style="fill:#455a64"></path><path d="M125.63,395.82c0-.11-.2-.07-.2,0a12.79,12.79,0,0,1-3,8.24c-2.21,2.55-5.46,4-8.41,5.47-.29.14-.07.58.22.5a26.12,26.12,0,0,0,5.21-2.25,12.82,12.82,0,0,0,3.92-3.25A11.26,11.26,0,0,0,125.63,395.82Z" style="fill:#263238"></path><path d="M154.54,392.61c-.66-.84-1.37-1.64-2.06-2.46-1.62-1.93-3.25-3.87-5-5.73-.16-.18-.47.07-.32.26,1.14,1.5,2.35,2.95,3.55,4.41.61.75,1.22,1.5,1.84,2.24a14.34,14.34,0,0,1,1.72,2.18c.45.84-.14,1.55-1,1.64a3,3,0,0,1-2.07-.77,27.3,27.3,0,0,1-3.52-3.76c-.68-.77-1.37-1.53-2.06-2.29s-1.53-1.58-2.26-2.38c-.05-.06-.14,0-.1.07.65.89,1.24,1.81,1.88,2.69s1.3,1.76,2,2.63,1.28,1.62,1.95,2.41a7.77,7.77,0,0,0,2,1.77c1.23.73,3.37.89,4-.71A2.24,2.24,0,0,0,154.54,392.61Z" style="fill:#263238"></path><path d="M234.82,437c-5,.09-9.92.38-14.88.49s-9.85.13-14.77.08q-14.83-.14-29.64-1.15c-10-.69-20.72-1.68-30.63-3-4.73-.66-9.54-1.2-14.22-2.21a22.48,22.48,0,0,1-11.22-5.73c-6.41-6.22-8.91-15.37-9.93-24.11-.14-1.17-.25-2.35-.35-3.52a.06.06,0,1,0-.12,0c.58,9,2,18.3,7.61,25.51a22.44,22.44,0,0,0,9.18,7.12c4.43,1.78,9.36,2.2,14,2.83,9.94,1.35,20.74,2.39,30.74,3.17s20.15,1.26,30.24,1.41,20.19,0,30.27-.49c1.23-.06,2.46-.13,3.68-.24A.06.06,0,0,0,234.82,437Z" style="fill:#263238"></path><path d="M203.53,398.86c-3.12-.45-6.24-.9-9.38-1.23s-6.35-.61-9.52-.88c-6.29-.53-12.59-1-18.89-1.31-3.58-.17-7.16-.18-10.74-.14-.11,0-.1.17,0,.18,6.3.57,12.6,1,18.91,1.38s12.58,1,18.87,1.57c3.56.34,7.13.61,10.69.9C203.74,399.35,203.8,398.9,203.53,398.86Z" style="fill:#263238"></path><path d="M162,391a48.42,48.42,0,0,0-7.24,3.88,57.29,57.29,0,0,0-6.69,4.68c-.06.05,0,.12.08.09,2.45-1.13,4.81-2.55,7.15-3.91a69.31,69.31,0,0,0,6.85-4.4C162.26,391.24,162.16,390.94,162,391Z" style="fill:#263238"></path><path d="M189.19,309.54l-9.08,25.56a.94.94,0,0,0,.73,1.47l13.51,1.28a2.2,2.2,0,0,0,2-1.21l9.08-25.56c.35-.75,0-1.41-.73-1.48l-13.51-1.28A2.19,2.19,0,0,0,189.19,309.54Z" style="fill:#37474f"></path><path d="M190.79,309.68l-9.07,25.56a.93.93,0,0,0,.73,1.47L196,338a2.19,2.19,0,0,0,2-1.21L207,311.21c.35-.74,0-1.4-.73-1.47l-13.51-1.28A2.21,2.21,0,0,0,190.79,309.68Z" style="fill:#455a64"></path><path d="M194.39,311.22a1.16,1.16,0,0,1-2.3-.26,1.16,1.16,0,0,1,2.3.26Z" style="fill:#263238"></path><path d="M140.77,350.14c7.95,16.23,25.55,37.18,32.68,37.15,3.4,0,9.47.7,13.86-3.27,9.58-8.67,18.07-24.44,20.14-33.18.77-3.27-16.92-11.49-19.25-8.75C182.73,348.5,176.45,361,175.47,361c-3.66-.21-18.14-11.87-28.24-20.07C135,330.91,137.6,343.67,140.77,350.14Z" style="fill:#ad6359"></path><path d="M209.11,335.35c-1-6.87-2.31-8.48-.08-14.73,1.46-4.1-.53-6.79-3.86-3.72-5.45,5-6,14.15-5.3,17.37Z" style="fill:#ad6359"></path><path d="M205.87,355.14s3.95-9,3.61-16.45c-.24-5.13-2-16.25-15.57-23.42-3.22-1.7-9-1.85-4.77,2.84,3,3.33,5.94,4.53,7.34,6.79,0,0-7.39.69-9,4a68.81,68.81,0,0,0-3.51,8.89,14,14,0,0,0,1.6.81s-1.38,3.12.55,8Z" style="fill:#ad6359"></path><path d="M208.47,333.83c-1.87-1.95-5.89-6-10.33-8.18-4.94-2.41-15.1-5.74-16.84-2.08-1.28,2.69,2.49,4.3,2.49,4.3s-4.49-.49-5.12,2.19c-.57,2.44,2.42,3.51,2.42,3.51s-2.77.17-2.87,2.63c-.12,2.95,5.72,2.11,8.18,5.2C187,342.1,208.47,333.83,208.47,333.83Z" style="fill:#ad6359"></path><path d="M196.46,331.29a21.93,21.93,0,0,0-12.58-3.49c-.11,0-.17.1-.06.11a54.15,54.15,0,0,1,12.61,3.43A0,0,0,0,0,196.46,331.29Z" style="fill:#263238"></path><path d="M193.87,336.2a24.53,24.53,0,0,0-12.76-2.73c-.11,0-.16.11-.06.12a57.58,57.58,0,0,1,12.8,2.66A0,0,0,0,0,193.87,336.2Z" style="fill:#263238"></path><path d="M145.92,362.49l20.22-8s-18.14-15.6-24.77-18.68c-7.47-3.47-7.61,1.11-5,8.47S145.92,362.49,145.92,362.49Z" style="fill:#E8C066"></path><path d="M145.92,362.49l20.22-8s-18.14-15.6-24.77-18.68c-7.47-3.47-7.61,1.11-5,8.47S145.92,362.49,145.92,362.49Z" style="fill:#E8C066"></path><path d="M161.87,352c-.75.17-7.09,2.57-8.45,3.12s-7,2.76-8.34,3.45c-.06,0,0,.12,0,.1,1.47-.42,7.13-2.62,8.53-3.16s7.63-3.05,8.27-3.42C162,352.06,161.92,352,161.87,352Z" style="fill:#263238"></path><path d="M153.72,359.39l-7.8,3.1s-6.91-10.87-9.53-18.23c-1.92-5.39-2.36-9.29.45-9.63Z" style="fill:#263238"></path><path d="M159.87,390.56l-55.1,10.77c-.09-1.14,3.68-35.32,8.28-48.3,5.9-16.64,9.72-18.36,12-19.47a18.51,18.51,0,0,1,9.7-1c1.53.51,7.06,8.05,9.39,13.78C148.79,357.81,160.53,389.75,159.87,390.56Z" style="fill:#E8C066"></path><path d="M136.35,333.9l-15.5,3a14.4,14.4,0,0,1,1.17-1.3l13.44-2.6A10.89,10.89,0,0,1,136.35,333.9Zm1.51,1.81-18.7,3.62c-.23.37-.47.77-.71,1.2l20.11-3.89Zm2,2.78-22.64,4.38-.56,1.18,23.81-4.61C140.26,339.11,140.05,338.8,139.85,338.49Zm1.76,2.83-26,5-.48,1.17,27-5.23C142,342,141.8,341.64,141.61,341.32Zm1.56,2.88-28.93,5.6-.43,1.14,29.83-5.77C143.49,344.85,143.34,344.52,143.17,344.2Zm1.29,2.91L113,353.21c-.13.36-.26.74-.38,1.14l32.24-6.25Q144.64,347.59,144.46,347.11Zm1.16,2.95L112,356.58c-.1.37-.21.75-.31,1.13L146,351.06C145.88,350.72,145.75,350.38,145.62,350.06Zm1.15,2.95-35.67,6.91-.27,1.11,36.31-7C147,353.67,146.89,353.34,146.77,353Zm1.12,2.95-37.55,7.27c-.07.37-.15.74-.23,1.12L148.27,357C148.14,356.62,148,356.29,147.89,356Zm1.12,3-39.34,7.62-.21,1.11,39.93-7.73C149.26,359.59,149.13,359.25,149,358.92Zm1.11,3-41.06,7.95c-.07.36-.13.73-.19,1.1l41.62-8.06C150.36,362.54,150.24,362.21,150.12,361.88Zm1.09,2.95-42.72,8.28c-.07.37-.13.73-.19,1.1l43.28-8.38C151.46,365.5,151.34,365.17,151.21,364.83Zm1.1,3L108,376.39l-.18,1.1,44.9-8.7C152.55,368.45,152.42,368.12,152.31,367.79Zm1.08,3-45.95,8.9c0,.36-.11.73-.16,1.1l46.46-9C153.63,371.42,153.5,371.08,153.39,370.75Zm1.06,3L107,382.92l-.15,1.09,48-9.29Zm1.06,3-49,9.49-.15,1.09,49.5-9.59C155.75,377.35,155.63,377,155.51,376.69Zm1,3-50.47,9.78c0,.37-.1.74-.14,1.09l51-9.87C156.79,380.32,156.67,380,156.55,379.65Zm1,3-51.91,10.05c0,.37-.09.74-.13,1.09l52.38-10.14C157.81,383.31,157.7,383,157.58,382.63Zm1,3-53.28,10.32c0,.38-.09.74-.12,1.09l53.72-10.41Zm.92,3-54.55,10.56c0,.42-.07.79-.1,1.09l54.92-10.64C159.69,389.33,159.6,389,159.49,388.6Z" style="fill:#030402;opacity:0.1"></path><path d="M120.69,337.3C102.52,356.21,76,404.11,72.76,411c-2.22,4.66,22.15,16.95,23.18,13.56,1.33-4.34,22.56-57.94,28.2-78.17C127.25,335.22,124.45,333.39,120.69,337.3Z" style="fill:#ad6359"></path><path d="M97.09,421.33c-.85,2.32-3.74,12.19-5.77,13.42s-12.64,1-18,1-6.4-1.49-6.31-3.33,11.32-2.2,11.32-2.2-15,4.3-18.78,5-12.47,2.89-13.73-.24c-.56-1.41,1.82-2.84,1.82-2.84s-3.65,1.07-4.23-.74c-.66-2.07,2.24-3.21,2.24-3.21s-2.28.46-2.33-1.22c-.12-3.76,14.15-5.61,14.15-5.61s-10.93,5.32-11.28,2.26c-.48-4.25,21.91-8.91,24.24-10.76a15.82,15.82,0,0,0,3.73-4.61Z" style="fill:#ad6359"></path><path d="M67.09,433.31a1.64,1.64,0,0,1,.5-1.43A4.62,4.62,0,0,1,68.9,431,17.21,17.21,0,0,1,72,430c2.11-.54,4.27-.92,6.42-1.47a25.89,25.89,0,0,0-6.61.74,11.86,11.86,0,0,0-3.15,1.21,4.08,4.08,0,0,0-1.32,1.13A1.7,1.7,0,0,0,67.09,433.31Z" style="fill:#263238"></path><path d="M47.64,432.11c1.54-.37,3.06-.81,4.58-1.25s3-.9,4.54-1.36l4.52-1.41c1.51-.48,3-.95,4.54-1.4a35.15,35.15,0,0,0-4.69.84c-1.55.35-3.07.79-4.59,1.25s-3,1-4.5,1.54S49.08,431.44,47.64,432.11Z" style="fill:#263238"></path><path d="M62.19,422.94a31.39,31.39,0,0,0-4.32.6,40.53,40.53,0,0,0-4.24,1.09,38.17,38.17,0,0,0-4.1,1.53,32.29,32.29,0,0,0-3.88,2c1.38-.47,2.72-1,4.09-1.46s2.74-.93,4.12-1.35,2.76-.84,4.14-1.25S60.79,423.33,62.19,422.94Z" style="fill:#263238"></path><path d="M60,419.36a26.63,26.63,0,0,0-6.89,1.46,26.16,26.16,0,0,0-6.34,3.07c2.22-.79,4.37-1.63,6.58-2.36S57.75,420.08,60,419.36Z" style="fill:#263238"></path><path d="M101.6,357.7l21.21.75a159.09,159.09,0,0,0,3.72-16.17c1.07-7.81-1.58-10-8.87-3.69C112.78,342.83,101.6,357.7,101.6,357.7Z" style="fill:#E8C066"></path><path d="M120.22,358.36c.23,0,2.41,0,2.57,0,.31-1.21.61-2.43.93-3.65.16-.6.34-1.21.52-1.81s.39-1.42.57-2c0-.1.15-.07.13,0-.16.79-.3,1.37-.44,2s-.26,1.21-.41,1.81c-.32,1.27-.6,2.63-1,3.88a21.06,21.06,0,0,1-2.9-.23A0,0,0,0,1,120.22,358.36Z" style="fill:#263238"></path><path d="M103.83,355.77c3.09-.11,6.18-.17,9.27-.09,1.55,0,3.09.1,4.63.18s3.07.33,4.61.4c.09,0,.08.13,0,.13-1.53-.15-3.1-.08-4.63-.14l-4.63-.16c-3.09-.08-6.17-.18-9.26-.19C103.73,355.9,103.74,355.77,103.83,355.77Z" style="fill:#263238"></path><path d="M135.62,343.87c-3.18.81-8.75-4-11-7.88-.15-.27.21-3.13.49-6.63.16-2.13.29-4.5.25-6.67,0-.45,13.67,3.06,13.67,3.06a34.86,34.86,0,0,0-1.16,8.36,4.92,4.92,0,0,0,.11.89s0,.09,0,.15C138.33,336.84,138.69,343.08,135.62,343.87Z" style="fill:#ad6359"></path><path d="M126.21,322.73c.7,3.66,3.15,12.49,10.42,12.52a8.57,8.57,0,0,0,1.39-.1c0-.06,0-.1,0-.15a4.92,4.92,0,0,1-.11-.88,34.24,34.24,0,0,1,1.16-8.37S129.18,323.22,126.21,322.73Z" style="fill:#263238"></path><path d="M121.79,308.45c-.8,5,3.63,18.46,7.45,21.08,5.55,3.78,13.69,3.1,16.67-3.35,2.89-6.26-3.2-23.71-7.38-26C132.36,296.83,123,301.09,121.79,308.45Z" style="fill:#ad6359"></path><path d="M137.69,324a1.39,1.39,0,0,0,.93.29,2.71,2.71,0,0,0,.91-.54,0,0,0,0,1,.05,0,1.29,1.29,0,0,1-1,.87,1,1,0,0,1-1-.58C137.58,324,137.65,324,137.69,324Z" style="fill:#263238"></path><path d="M137.77,320.94a3.2,3.2,0,0,0,2.51.71,4.11,4.11,0,0,0,1.13-.3l.2-.1.19-.09a.25.25,0,0,0,.12-.26h0s0-.06,0-.09h0l0-.08c-.21-.7-.62-1.74-.62-1.74.3,0,1.79.21,1.65-.15a48.72,48.72,0,0,0-4.22-9,.09.09,0,0,0-.15.08c1,2.9,2.49,5.6,3.54,8.5a5.66,5.66,0,0,0-1.6,0c-.09.07.83,2,.9,2.33v0a4.46,4.46,0,0,1-3.52,0C137.74,320.8,137.69,320.89,137.77,320.94Z" style="fill:#263238"></path><path d="M140.88,321.12a3.89,3.89,0,0,1-1.1,1.62,1.77,1.77,0,0,1-1,.38c-.79.05-1-.61-1.07-1.23a4.1,4.1,0,0,1,.05-1A5,5,0,0,0,140.88,321.12Z" style="fill:#263238"></path><path d="M139.78,322.74a1.77,1.77,0,0,1-1,.38c-.79.05-1-.61-1.07-1.23A1.8,1.8,0,0,1,139.78,322.74Z" style="fill:#ff98b9"></path><path d="M136,314.92s-.06.06,0,.1c.3.9.5,2-.23,2.54,0,0,0,.07,0,.05C136.75,317.16,136.47,315.72,136,314.92Z" style="fill:#263238"></path><path d="M134.93,314.21c-1.51.34-.72,3.32.67,3S136.18,313.93,134.93,314.21Z" style="fill:#263238"></path><path d="M141.44,313.29s.08,0,.09.06c.22.93.62,2,1.53,2,0,0,0,.05,0,.05C142,315.58,141.49,314.21,141.44,313.29Z" style="fill:#263238"></path><path d="M142,312.11c1.46-.5,2.35,2.45,1,2.91S140.79,312.53,142,312.11Z" style="fill:#263238"></path><path d="M133.22,313.51c.4-.18.73-.41,1.11-.62s.78-.4,1-.85a.65.65,0,0,0-.24-.76,1.62,1.62,0,0,0-1.63.12,2.36,2.36,0,0,0-1.17,1.24A.7.7,0,0,0,133.22,313.51Z" style="fill:#263238"></path><path d="M142.49,310.6a10.74,10.74,0,0,1-1.14-.06,1.87,1.87,0,0,1-1.16-.29.61.61,0,0,1-.1-.72,1.45,1.45,0,0,1,1.37-.55,2.18,2.18,0,0,1,1.45.55A.63.63,0,0,1,142.49,310.6Z" style="fill:#263238"></path><path d="M124.05,320.3s-5.12-8.1-4.74-12.85c.16-2.14,3-3.64,3-3.64s9.36-9.39,19.63-2.49c1.22.81,4.22,3.43-.78,5.82s-14.94.32-14.94.32a34.88,34.88,0,0,1,0,10.4A3.18,3.18,0,0,1,124.05,320.3Z" style="fill:#263238"></path><path d="M126.3,319.31s-3.83-4-5.67-2.53,1.52,7.52,4,8a2.45,2.45,0,0,0,3-1.81Z" style="fill:#ad6359"></path><path d="M121.64,318.5s0,.06,0,.07a6.16,6.16,0,0,1,3.76,3.31,1.35,1.35,0,0,0-2,0s0,.09.06.08a1.49,1.49,0,0,1,1.72.26,7.71,7.71,0,0,1,1,1.2c.1.13.35,0,.27-.15l0,0C126.07,321.06,124,318.35,121.64,318.5Z" style="fill:#263238"></path><path d="M141.56,299.43c-1.56.17-9.44,3.29-12.46,6.13s-7.51,10.29-7.74,10.68-6.62-12.16,3.16-18.41C135.17,291,141.56,299.43,141.56,299.43Z" style="fill:#E8C066"></path><path d="M121.77,315.48s3.68-11.84,6.83-15.38,11.47-7.9,17.75-7.48c4.9.33-3.45,9.5-3.45,9.5a3.13,3.13,0,0,0-2.38-1.45c-3-.09-7.74,2.53-10.24,4.52C127.12,307.7,121.77,315.48,121.77,315.48Z" style="fill:#E8C066"></path><path d="M121.77,315.48s3.68-11.84,6.83-15.38,11.47-7.9,17.75-7.48c4.9.33-3.45,9.5-3.45,9.5a3.13,3.13,0,0,0-2.38-1.45c-3-.09-7.74,2.53-10.24,4.52C127.12,307.7,121.77,315.48,121.77,315.48Z" style="opacity:0.2"></path></g><g id="freepik--Post--inject-46"><polygon points="40.26 278.59 193.38 278.59 208.62 297.95 208.62 180.16 40.26 180.16 40.26 278.59" style="fill:#fff"></polygon><path d="M40.26,278.59l153.12-.29h.14l.09.11,15.25,19.35-.54.19-.2-117.79.5.5-168.36-.21.29-.29Zm0,0L40,180.16v-.28h.28l168.36-.21h.5v.5L208.93,298v.89l-.55-.7-15.22-19.37.22.11Z" style="fill:#263238"></path><path d="M188,196a.42.42,0,1,1-.41.41A.42.42,0,0,1,188,196Z"></path><path d="M189.27,196a.42.42,0,1,1,0,.83.42.42,0,0,1,0-.83Z"></path><path d="M190.56,196a.42.42,0,1,1-.42.41A.42.42,0,0,1,190.56,196Z"></path><path d="M101.67,201.46a.84.84,0,1,0,1.68,0,.84.84,0,1,0-1.68,0Z" style="fill:#c7c7c7"></path><path d="M104,203.78v.3h-2.91v-.3a1.46,1.46,0,0,1,2.91,0Z" style="fill:#c7c7c7"></path><path d="M103.71,201a.85.85,0,0,0,1.69,0,.85.85,0,0,0-1.69,0Z" style="fill:#c7c7c7"></path><path d="M106,203.32v.3H103.1v-.3a1.46,1.46,0,0,1,2.91,0Z" style="fill:#c7c7c7"></path><path d="M79,203a.65.65,0,0,0,1.27-.2v-1.87a.26.26,0,0,1,.26-.26.25.25,0,0,1,.26.26v1.87a1.17,1.17,0,0,1-2.28.36A.26.26,0,1,1,79,203Z" style="fill:#c7c7c7"></path><path d="M82.42,203.92a1,1,0,0,1-1-1v-1.13a.25.25,0,0,1,.5,0v1.13a.47.47,0,0,0,.48.48.5.5,0,0,0,.5-.48v-1.13a.25.25,0,0,1,.24-.25.26.26,0,0,1,.25.25v1.13A1,1,0,0,1,82.42,203.92Z" style="fill:#c7c7c7"></path><path d="M84.26,203.24a.25.25,0,0,1,.36,0,.83.83,0,0,0,.51.2.58.58,0,0,0,.32-.09.18.18,0,0,0,.09-.14s0,0,0-.05,0,0-.06,0a.91.91,0,0,0-.37-.13h0a1.79,1.79,0,0,1-.41-.13.7.7,0,0,1-.32-.27.5.5,0,0,1-.08-.3.65.65,0,0,1,.27-.51,1,1,0,0,1,.58-.18,1.23,1.23,0,0,1,.71.26.26.26,0,0,1,.07.35.24.24,0,0,1-.34.07.83.83,0,0,0-.44-.18.47.47,0,0,0-.28.09c-.06,0-.07.08-.07.1s0,0,0,0,0,0,0,.05a1,1,0,0,0,.34.11h0a2,2,0,0,1,.44.13.8.8,0,0,1,.33.28.56.56,0,0,1,.09.31.69.69,0,0,1-.3.55,1,1,0,0,1-.61.19,1.44,1.44,0,0,1-.84-.33A.26.26,0,0,1,84.26,203.24Z" style="fill:#c7c7c7"></path><path d="M87.82,201.82a.26.26,0,0,1-.26.26h-.12v1.31a.27.27,0,0,1,0,.53.52.52,0,0,1-.52-.53v-1.31h-.14a.26.26,0,0,1,0-.52h.14v-.68a.26.26,0,0,1,.52,0v.68h.12A.26.26,0,0,1,87.82,201.82Z" style="fill:#c7c7c7"></path><path d="M90.63,203.66a.26.26,0,0,1-.52,0v-2.74h0a.28.28,0,0,1,.11-.22.26.26,0,0,1,.36.06l1.52,2.1v-1.94a.25.25,0,0,1,.25-.25.26.26,0,0,1,.26.25v2.74a.26.26,0,0,1-.26.26.24.24,0,0,1-.19-.1l0,0-1.5-2.09Z" style="fill:#c7c7c7"></path><path d="M93.9,203.57a1.17,1.17,0,0,1-.32-.83,1.22,1.22,0,0,1,.32-.82,1.13,1.13,0,0,1,.81-.36,1.05,1.05,0,0,1,.79.36,1.18,1.18,0,0,1,.33.82,1.14,1.14,0,0,1-.33.83,1.05,1.05,0,0,1-.79.36A1.13,1.13,0,0,1,93.9,203.57Zm.19-.83a.74.74,0,0,0,.17.5.61.61,0,0,0,.45.18.6.6,0,0,0,.44-.18.7.7,0,0,0,.18-.5.71.71,0,0,0-.18-.49.64.64,0,0,0-.89,0A.75.75,0,0,0,94.09,202.74Z" style="fill:#c7c7c7"></path><path d="M99.47,201.94l-.78,1.83,0,0h0l0,0h0l0,0h0l0,0h-.19l0,0h0s0,0,0,0h0l0,0h0s0,0,0,0L97.9,203l-.34.82,0,0h0l0,0h0l0,0,0,0h-.2l0,0h0l0,0h0l0,0h0s0,0,0,0l-.78-1.83a.26.26,0,0,1,.14-.33.24.24,0,0,1,.31.15l.56,1.26.33-.78a.25.25,0,0,1,.46,0l.33.78.56-1.26a.23.23,0,0,1,.31-.15A.25.25,0,0,1,99.47,201.94Z" style="fill:#c7c7c7"></path><path d="M72.73,198.21a8.46,8.46,0,0,1-3.79,5.2,8.43,8.43,0,0,1-6.48,1,7.7,7.7,0,0,1-1.06-.34,6.4,6.4,0,0,1-1.39-.68,8.49,8.49,0,1,1,12.72-5.2Z" style="fill:#dbdbdb"></path><path d="M65.9,203.74a5,5,0,0,1,.06.81,8.31,8.31,0,0,1-3.5-.12,7.7,7.7,0,0,1-1.06-.34.13.13,0,0,1,0-.06,22.22,22.22,0,0,1,.17-2.27c0-.48.07-1,.07-1.52,0-.11,0-.21,0-.32h0c0-.14,0-.28,0-.41h.08l.21,0h0a4.16,4.16,0,0,1,.47.09.73.73,0,0,1,.2,0l.36.07,1.2.29.31.07a.29.29,0,0,0,.1,0l.25.06,1.46.37a11.6,11.6,0,0,0-.36,2,5.36,5.36,0,0,0,0,.8c0,.1,0,.2,0,.3A.07.07,0,0,1,65.9,203.74Z" style="fill:#ad6359"></path><path d="M61.88,199.51c.24,1.25,1.07,4.25,3.54,4.26a3.53,3.53,0,0,0,.48,0,.43.43,0,0,0,0-.05c0-.1,0-.2,0-.3a11.8,11.8,0,0,1,.4-2.85S62.89,199.68,61.88,199.51Z" style="fill:#263238"></path><path d="M60.38,194.66c-.27,1.69,1.23,6.28,2.53,7.16,1.89,1.29,4.66,1.06,5.67-1.13s-1.08-8.07-2.51-8.84A4.09,4.09,0,0,0,60.38,194.66Z" style="fill:#ad6359"></path><path d="M65.79,199.94c.09,0,.2.12.31.09a.81.81,0,0,0,.31-.18s0,0,0,0a.44.44,0,0,1-.34.29c-.15,0-.25-.07-.33-.19S65.77,199.93,65.79,199.94Z" style="fill:#263238"></path><path d="M65.81,198.91a1.14,1.14,0,0,0,.86.24,1.27,1.27,0,0,0,.38-.11l.07,0,.06,0a.07.07,0,0,0,0-.09h0a0,0,0,0,0,0,0h0v0c-.07-.24-.21-.6-.21-.6s.61.08.56,0a16.61,16.61,0,0,0-1.43-3.05s-.07,0-.06,0c.34,1,.85,1.91,1.21,2.89a2,2,0,0,0-.55,0s.29.68.31.79v0a1.55,1.55,0,0,1-1.2,0S65.79,198.89,65.81,198.91Z" style="fill:#263238"></path><path d="M66.87,199a1.37,1.37,0,0,1-.37.55.67.67,0,0,1-.34.13c-.27,0-.35-.21-.36-.42a1.24,1.24,0,0,1,0-.33A1.71,1.71,0,0,0,66.87,199Z" style="fill:#263238"></path><path d="M66.5,199.52a.67.67,0,0,1-.34.13c-.27,0-.35-.21-.36-.42A.62.62,0,0,1,66.5,199.52Z" style="fill:#ff98b9"></path><path d="M65.3,196.89s0,0,0,0c.09.31.15.68-.11.86,0,0,0,0,0,0C65.52,197.67,65.44,197.17,65.3,196.89Z" style="fill:#263238"></path><path d="M64.94,196.64c-.52.1-.29,1.12.19,1S65.37,196.56,64.94,196.64Z" style="fill:#263238"></path><path d="M67.11,196.33s0,0,0,0c.06.32.18.67.49.71,0,0,0,0,0,0C67.27,197.11,67.11,196.64,67.11,196.33Z" style="fill:#263238"></path><path d="M67.31,195.93c.5-.15.77.86.31,1S66.9,196.06,67.31,195.93Z" style="fill:#263238"></path><path d="M64.41,196.44c.13-.07.24-.15.37-.23s.26-.15.32-.31a.21.21,0,0,0-.09-.25.55.55,0,0,0-.55.07.82.82,0,0,0-.38.44A.24.24,0,0,0,64.41,196.44Z" style="fill:#263238"></path><path d="M67.58,195.36a2.57,2.57,0,0,1-.39,0,.58.58,0,0,1-.39-.08.2.2,0,0,1,0-.24.52.52,0,0,1,.46-.21.78.78,0,0,1,.5.17C67.86,195.1,67.76,195.34,67.58,195.36Z" style="fill:#263238"></path><path d="M61.15,198.69s-1.74-2.76-1.62-4.37c.06-.73,1-1.24,1-1.24s3.18-3.19,6.68-.85c.41.28,1.43,1.17-.27,2s-5.08.11-5.08.11a12,12,0,0,1,0,3.54A1.09,1.09,0,0,1,61.15,198.69Z" style="fill:#263238"></path><path d="M61.91,198.35s-1.3-1.35-1.93-.86.52,2.56,1.37,2.73a.84.84,0,0,0,1-.62Z" style="fill:#ad6359"></path><path d="M60.33,198.07s0,0,0,0a2.06,2.06,0,0,1,1.27,1.13.44.44,0,0,0-.69,0s0,0,0,0a.49.49,0,0,1,.58.09,2.66,2.66,0,0,1,.34.4c0,.05.12,0,.09,0h0C61.83,199,61.11,198,60.33,198.07Z" style="fill:#263238"></path><path d="M67.1,191.59a12.53,12.53,0,0,0-4.24,2.08,24,24,0,0,0-2.63,3.63c-.08.14-2.25-4.13,1.08-6.25C64.93,188.73,67.1,191.59,67.1,191.59Z" style="fill:#E8C066"></path><path d="M60.37,197.05s1.25-4,2.32-5.23a9,9,0,0,1,6-2.55c1.67.11-1.17,3.23-1.17,3.23a1.07,1.07,0,0,0-.81-.49,6.88,6.88,0,0,0-3.49,1.54A23.07,23.07,0,0,0,60.37,197.05Z" style="fill:#E8C066"></path><path d="M60.37,197.05s1.25-4,2.32-5.23a9,9,0,0,1,6-2.55c1.67.11-1.17,3.23-1.17,3.23a1.07,1.07,0,0,0-.81-.49,6.88,6.88,0,0,0-3.49,1.54A23.07,23.07,0,0,0,60.37,197.05Z" style="opacity:0.2"></path><path d="M96.73,193.51c10.75,0,18.25-.65,18.25-.65s-7.5-.58-18.25-.58-18.24.58-18.24.58S86,193.51,96.73,193.51Z" style="fill:#455a64"></path><path d="M92.5,196.59c8.26,0,14-.56,14-.56s-5.76-.5-14-.5-14,.5-14,.5S84.24,196.59,92.5,196.59Z" style="fill:#dbdbdb"></path><polygon points="56.85 209.14 73.78 208.95 90.71 208.84 124.57 208.75 158.42 208.84 175.35 208.95 192.28 209.14 175.35 209.33 158.42 209.44 124.57 209.53 90.71 209.44 73.78 209.33 56.85 209.14" style="fill:#c7c7c7"></polygon><polygon points="56.85 213.67 73.78 213.48 90.71 213.37 124.57 213.28 158.42 213.37 175.35 213.47 192.28 213.67 175.35 213.86 158.42 213.97 124.57 214.06 90.71 213.97 73.78 213.86 56.85 213.67" style="fill:#c7c7c7"></polygon><polygon points="56.85 218.19 66.51 218 76.17 217.89 95.49 217.8 114.81 217.89 124.47 218 134.13 218.19 124.47 218.39 114.81 218.5 95.49 218.59 76.17 218.5 66.51 218.38 56.85 218.19" style="fill:#c7c7c7"></polygon><rect x="55.98" y="224.26" width="69.87" height="45.37" transform="translate(181.83 493.9) rotate(180)" style="fill:#E8C066"></rect><path d="M62.56,234.9a5.46,5.46,0,1,0,4.29-4.13A5.37,5.37,0,0,0,62.56,234.9Z" style="opacity:0.2"></path><polygon points="75.35 260.06 125.85 260.06 100.6 236.13 75.35 260.06" style="opacity:0.2"></polygon><polygon points="55.98 260.08 97.67 260.08 76.82 244.5 55.98 260.08" style="fill:#E8C066"></polygon><polygon points="55.98 260.08 97.67 260.08 76.82 244.5 55.98 260.08" style="opacity:0.30000000000000004"></polygon><rect x="55.98" y="260.06" width="69.87" height="9.58" style="fill:#E8C066"></rect><rect x="55.98" y="260.06" width="69.87" height="9.58" style="opacity:0.30000000000000004"></rect></g></svg>